/* XPM */
static char *_45c7f98432d4414ecbe53b780b8a7b1o0sGzEjWJknWwDBJ[] = {
/* columns rows colors chars-per-pixel */
"64 64 179 2 ",
"   c None",
".  c #1B1209",
"X  c #210F0E",
"o  c #221109",
"O  c #32170D",
"+  c #2D1A17",
"@  c #3B1B13",
"#  c #38211D",
"$  c #3A2621",
"%  c #3B2D25",
"&  c #42231E",
"*  c #482E2A",
"=  c #472D24",
"-  c #4D342E",
";  c #4A3D2F",
":  c #52352E",
">  c #5E372E",
",  c #513A2D",
"<  c #4C3631",
"1  c #523530",
"2  c #5A3E33",
"3  c #5E3F3B",
"4  c #623525",
"5  c #653B33",
"6  c #6C3F35",
"7  c #623F39",
"8  c #5F4031",
"9  c #5B433B",
"0  c #56453A",
"q  c #6E412C",
"w  c #72412C",
"e  c #6A4134",
"r  c #624039",
"t  c #694437",
"y  c #704234",
"u  c #7D4A3C",
"i  c #5E5445",
"p  c #604F42",
"a  c #615345",
"s  c #755345",
"d  c #7C5445",
"f  c #665E54",
"g  c #834834",
"h  c #824D3B",
"j  c #83503E",
"k  c #89513B",
"l  c #864F42",
"z  c #825142",
"x  c #875948",
"c  c #965845",
"v  c #9B5B44",
"b  c #9E5E49",
"n  c #905645",
"m  c #9C624A",
"M  c #97624D",
"N  c #846552",
"B  c #976655",
"V  c #A36246",
"C  c #A6624A",
"Z  c #AA674E",
"A  c #AE694C",
"S  c #B1694E",
"D  c #B1674C",
"F  c #B6734E",
"G  c #B9764F",
"H  c #A66850",
"J  c #AC6D53",
"K  c #B26E52",
"L  c #AD7156",
"P  c #A77B5F",
"I  c #A2725C",
"U  c #B67254",
"Y  c #BC7453",
"T  c #B77857",
"R  c #BD7956",
"E  c #B77859",
"W  c #BA7959",
"Q  c #BD775A",
"!  c #9A7560",
"~  c #AB7660",
"^  c #BD7E62",
"/  c #C07857",
"(  c #C17E5A",
")  c #BF805D",
"_  c #9B886F",
"`  c #8D8273",
"'  c #9C8771",
"]  c #978971",
"[  c #9A8871",
"{  c #9C8C79",
"}  c #A68167",
"|  c #A2806A",
" . c #B08065",
".. c #B38168",
"X. c #A68F79",
"o. c #B58774",
"O. c #B9927C",
"+. c #C5855E",
"@. c #C9865E",
"#. c #C68D5E",
"$. c #C98B5E",
"%. c #C28257",
"&. c #C4935E",
"*. c #C9925F",
"=. c #C48461",
"-. c #C98662",
";. c #C68D62",
":. c #CA8C63",
">. c #C58E6B",
",. c #C98C6B",
"<. c #C79262",
"1. c #CB9464",
"2. c #CC9A66",
"3. c #C6946B",
"4. c #CA936C",
"5. c #CE9C6A",
"6. c #D19E6A",
"7. c #C69373",
"8. c #CA9572",
"9. c #CE9F74",
"0. c #C49A7D",
"q. c #CD9F7F",
"w. c #D29D74",
"e. c #D39E79",
"r. c #CCA067",
"t. c #CDA26A",
"y. c #D3A46D",
"u. c #D4AA6E",
"i. c #CDA173",
"p. c #CCA07F",
"a. c #D4A472",
"s. c #D9A673",
"d. c #D4AA70",
"f. c #D8A972",
"g. c #D3A57A",
"h. c #D4AE7B",
"j. c #DCAF7F",
"k. c #D9A27C",
"l. c #DBB27F",
"z. c #D9B47F",
"x. c #B39880",
"c. c #C39A83",
"v. c #CD9F81",
"b. c #CEA080",
"n. c #C7A382",
"m. c #DDAE8A",
"M. c #D1A98C",
"N. c #D7B182",
"B. c #DAB685",
"V. c #D9B582",
"C. c #DCB08E",
"Z. c #CAB09D",
"A. c #DFBD96",
"S. c #DFBD98",
"D. c #D9BF9E",
"F. c #DABE9E",
"G. c #DAB497",
"H. c #E0AE88",
"J. c #E0BC97",
"K. c #E1BB99",
"L. c #E1BC9A",
"P. c #D8B7A0",
"I. c #D0B8A3",
"U. c #DBBCA1",
"Y. c #E1BDA1",
"T. c #DFC49A",
"R. c #D8C09E",
"E. c #DFC39B",
"W. c #E1C39A",
"Q. c #E0C39A",
"!. c #E1C399",
"~. c #E0C39B",
"^. c #E1C6A6",
"/. c #E3C5A6",
"(. c #E2C8A5",
"). c #E5C6A9",
"_. c #E3C5A8",
"`. c #E8C6A9",
"'. c #E6C8A8",
/* pixels */
"    ` ] ] [ [ [ [ [ [ [ [ ] ] [ [ [ [ [ [ [ [ [ ' ' ' ' ' ' ' ' ' ' ' ' ' ' ' ' ' ' ' ' ' ' ' ' [ [ ] [ [ [ [ [ _ ' ' ' [ { `   ",
"  0 x.~.A.J.J.K.L.J.J.Q.T.T.T.T.Q.!.T.Q.Q.Q.Q.Q.Q.Q.Q.Q.!.!.!.!.Q.Q.Q.Q.Q.!.Q.Q.!.!.!.!.Q.Q.Q.Q.Q.T.T.~.E.S.S.L.K.K.K.K.L.U.X.; ",
"f Z.q.4.1.1.1.1.1.1.2.f.h.h.d.d.d.d.d.d.d.d.h.d.d.d.d.d.d.d.d.d.d.d.d.d.d.d.d.d.d.d.d.d.d.d.d.d.d.d.h.f.5.3.3.4.4.4.3.4.4.3.n.I.",
"i U.e.;.<.2.6.6.<.<.6.a.d.d.u.u.u.u.u.u.u.u.u.u.u.u.u.u.u.u.u.u.u.u.u.u.u.u.u.u.u.u.u.u.u.u.u.u.u.u.u.u.y.6.6.1.;.;.2.6.6.<.g._.",
"i D.w.<.1.a.f.a.2.5.f.d.d.d.d.d.u.d.d.d.d.d.d.d.d.d.d.d.d.d.d.d.d.d.d.d.d.d.d.d.d.d.d.d.d.d.f.f.d.u.u.u.u.d.a.2.1.2.y.s.y.*.g./.",
"i D.i.<.a.d.d.d.d.d.d.u.u.u.d.d.d.d.d.d.d.d.d.d.d.d.d.d.d.d.d.d.d.d.d.d.d.d.d.d.d.d.d.d.d.d.d.d.d.d.d.d.d.u.d.d.d.d.f.6.*.#.g._.",
"i D.h.y.d.d.d.d.d.d.u.u.u.u.d.d.d.d.d.d.d.d.d.d.d.d.d.d.d.d.d.d.d.d.d.d.d.d.d.d.d.d.d.d.d.d.d.d.d.d.d.d.d.u.d.u.f.a.5.<.$.$.g._.",
"i R.V.d.d.u.u.u.u.u.u.u.u.d.d.d.d.d.d.d.d.d.d.d.d.d.d.d.d.d.d.d.d.d.d.d.d.d.d.d.d.d.d.d.d.d.d.d.d.d.d.d.d.d.d.u.f.y.5.<.1.;.g._.",
"i R.V.d.d.u.u.u.u.u.u.d.d.d.d.u.u.u.d.d.d.d.d.d.d.d.d.d.d.d.d.d.d.d.d.d.d.d.d.d.d.d.d.d.d.d.d.d.d.d.d.d.d.d.d.u.u.d.d.a.a.<.g._.",
"a R.z.d.d.d.d.d.d.d.d.d.d.d.u.u.u.u.d.d.d.d.d.d.d.d.d.d.d.d.d.d.d.d.d.d.d.d.d.d.d.d.d.d.d.d.d.d.d.d.d.d.d.d.d.d.d.d.d.d.d.y.N./.",
"a D.z.u.d.d.d.d.d.d.d.d.d.d.u.u.u.u.d.d.d.d.d.d.d.d.d.d.d.d.d.d.d.d.d.d.d.d.d.d.d.d.d.d.d.d.d.d.d.d.d.d.d.d.d.d.d.d.d.u.u.d.B./.",
"i D.z.u.d.d.d.d.d.d.d.d.d.d.d.d.d.d.d.d.d.d.d.d.d.d.d.d.d.d.d.d.d.d.d.d.d.d.d.d.d.d.d.d.d.d.d.d.d.d.d.d.d.d.d.d.d.u.u.u.u.u.B./.",
"i D.z.d.d.d.d.d.d.d.d.d.d.d.d.d.d.d.d.d.d.d.d.d.d.d.d.d.d.d.d.d.d.d.d.d.d.d.d.d.d.d.d.d.d.d.d.d.d.d.d.d.d.d.d.d.d.u.u.u.u.u.B./.",
"i D.z.d.d.d.d.d.d.d.d.d.d.d.d.d.d.d.d.d.d.d.d.d.d.d.d.d.d.d.d.d.d.d.d.d.d.d.d.d.d.d.d.d.d.d.d.d.d.d.d.d.d.d.d.d.d.d.u.u.u.u.B./.",
"i D.j.y.d.d.d.d.d.d.d.d.d.d.d.d.d.d.d.d.d.d.d.d.d.d.d.d.d.d.d.d.d.d.d.d.d.d.d.d.d.d.d.d.d.d.d.d.d.d.d.d.d.d.d.d.d.d.d.u.d.d.V./.",
"i U.a.2.f.d.d.d.d.d.d.d.d.d.d.d.d.d.d.d.d.d.d.d.d.d.d.d.d.d.d.d.d.d.d.d.d.d.d.d.d.d.d.d.d.d.d.d.d.d.d.d.d.d.d.u.d.d.d.d.d.d.V.^.",
"i F.a.<.5.5.t.d.d.d.d.d.u.d.d.d.d.d.d.d.d.d.d.d.d.d.d.d.d.d.d.d.u.d.d.d.d.d.d.d.d.d.d.d.d.d.d.d.d.d.d.d.u.d.d.u.d.d.d.d.d.t.h.(.",
"p G.w.$.#.&.2.d.d.d.d.d.d.d.d.d.d.d.d.d.d.d.d.d.d.d.d.d.d.d.d.d.d.d.d.d.d.d.d.d.d.d.d.d.d.d.d.d.d.d.d.d.u.d.d.d.d.d.d.d.y.&.i.Y.",
", ..:.:.*.6.s.f.d.d.d.d.d.d.d.d.d.d.d.d.d.d.d.d.d.d.d.d.d.d.d.d.d.d.d.d.d.d.d.d.d.d.d.d.d.d.d.d.d.d.d.d.d.d.d.d.d.d.d.y.<.<.>.o.",
"= B Q @.;.6.6.6.6.6.6.6.6.6.6.6.6.6.6.6.6.6.6.6.6.6.6.6.6.6.6.6.6.6.6.6.6.6.6.6.6.6.6.6.6.6.6.6.6.6.6.6.6.6.6.5.5.5.6.1.%.R m t ",
"< d H Q -.:.:.:.:.$.$.:.:.:.:.:.:.:.:.:.:.:.$.:.:.:.:.:.:.:.:.:.:.:.:.:.:.:.:.:.:.:.:.:.:.:.$.:.:.:.:.:.:.:.:.+.+.:.:.=.U C y o ",
"  @ g Z R R Y T T T T Y Y Y Y Y Y Y Y Y Y Y Y Y Y Y Y Y Y Y Y Y Y Y Y Y Y Y Y Y Y Y Y Y Y Y Y Y Y Y Y Y Y Y Y R Y R R W U C e . ",
"  5 c U ( %.+.;.;.;.;.;.;.;.;.;.;.;.;.;.;.;.;.;.;.;.;.;.;.;.;.;.;.;.;.;.;.;.;.;.;.;.;.;.;.;.;.;.;.;.;.;.;.;.;.;.$.%.%.%.( K n 2 ",
"* B U ( ;.<.6.s.f.d.f.d.d.d.d.d.d.d.d.d.f.f.d.d.f.f.d.d.d.d.d.d.d.d.d.d.d.d.d.d.d.d.d.d.f.f.d.d.d.d.d.d.d.d.d.f.y.<.1.1.1.( J B ",
"- I =.:.<.6.a.d.u.d.d.d.d.d.d.d.d.d.d.d.d.d.d.d.d.d.d.d.d.d.d.d.d.d.d.d.d.d.d.d.d.d.d.d.d.d.d.d.d.d.d.d.d.d.d.u.u.y.y.a.a.<.%.~ ",
"0 c.4.1.5.a.d.d.u.d.d.d.d.d.d.d.d.d.d.d.d.d.d.d.d.d.d.d.d.d.d.d.d.d.d.d.d.d.d.d.d.d.d.d.d.d.d.d.d.d.d.d.d.d.d.d.u.a.s.y.2.<.4.M.",
"a F.w.1.f.d.d.d.u.d.d.d.d.d.d.d.d.d.d.d.d.d.d.d.d.d.d.d.d.d.d.d.d.d.d.d.d.d.d.d.d.d.d.d.d.d.d.d.d.d.d.d.d.d.d.d.d.y.a.6.#.;.g.`.",
"i D.a.1.s.d.d.d.u.d.d.d.d.d.d.d.d.d.d.d.d.d.d.d.u.d.d.d.d.d.d.d.d.d.d.d.d.d.d.d.d.d.d.d.d.d.d.d.d.d.d.d.d.d.d.d.t.&.&.<.;.#.g./.",
"i D.i.<.2.a.d.u.u.d.d.d.d.d.d.d.d.d.d.d.d.d.d.d.d.d.d.d.d.d.d.d.d.d.d.d.d.d.d.d.d.d.d.d.d.d.d.d.d.d.d.d.d.d.d.u.y.t.6.2.<.#.g.^.",
"a D.9.#.#.5.y.y.y.d.d.d.d.d.d.d.d.d.d.d.d.d.d.d.d.d.d.d.d.d.d.d.d.d.d.d.d.d.d.d.d.d.d.d.d.d.d.d.d.d.d.d.d.d.d.u.u.d.f.y.<.&.g./.",
"i D.a.;.;.;.<.<.y.d.u.u.d.d.d.d.d.d.d.d.d.d.d.d.d.d.d.d.d.d.d.d.d.d.d.d.d.d.d.d.d.d.d.d.d.d.d.d.d.d.d.d.d.d.u.u.u.u.u.u.y.<.g./.",
"i D.a.#.;.6.6.y.u.u.u.u.u.u.u.u.u.u.u.u.u.u.u.u.u.u.u.u.u.u.u.u.u.u.u.u.u.u.u.u.u.u.u.u.u.u.u.u.u.u.u.u.u.u.u.u.u.u.d.d.d.<.g._.",
"i D.a.#.<.6.y.f.d.u.u.u.u.u.u.u.u.u.u.u.u.u.u.u.u.u.u.u.u.u.u.u.u.u.u.u.u.u.u.u.u.u.u.u.u.u.u.u.u.u.u.u.u.u.u.u.d.d.d.a.6.<.g._.",
"i D.a.#.;.$.2.s.f.d.u.d.d.d.f.f.f.f.f.f.f.f.d.d.f.f.f.f.f.f.f.f.f.f.d.d.f.f.f.f.f.f.d.d.f.f.f.f.f.f.f.f.f.f.d.d.d.d.s.6.;.;.g._.",
"i D.a.;.;.;.1.1.1.1.1.1.1.1.1.1.1.1.1.1.1.1.1.1.1.1.1.1.1.1.1.1.1.1.1.1.1.1.1.1.1.1.1.1.1.1.1.1.1.1.1.1.1.1.1.1.1.1.1.1.:.;.g._.",
"i U.e.;.:.:.:.:.:.:.:.;.;.;.;.;.;.;.;.;.;.;.;.;.;.;.;.;.;.;.;.;.;.;.;.;.;.;.;.;.;.;.;.;.;.;.;.;.;.;.;.;.;.;.;.;.;.;.;.:.:.:.g._.",
"i D.e.;.:.:.:.:.:.:.:.:.:.:.:.:.:.:.:.:.:.:.:.:.:.:.:.:.:.:.:.:.:.:.:.:.:.:.:.:.:.:.:.:.:.:.:.:.:.:.:.:.:.:.:.;.;.;.:.:.:.;.g._.",
"a Y.e.;.;.;.;.;.;.;.;.;.;.;.;.;.;.;.;.;.;.;.;.;.;.;.;.;.;.;.;.;.;.;.;.;.;.;.;.;.;.;.;.;.;.;.;.;.;.;.;.;.;.;.;.;.;.;.;.:.:.;.g.'.",
"0 x.,.-.:.;.;.;.;.;.;.;.;.;.;.;.;.;.;.;.;.;.;.;.;.;.;.;.;.;.;.;.;.;.;.;.;.;.;.;.;.;.;.;.;.;.;.;.;.;.;.;.;.;.;.;.;.;.:.:.:.:.6.M.",
"- x J Q :.:.:.:.:.:.:.:.:.:.:.:.:.:.:.:.:.:.:.:.:.:.:.:.:.:.:.:.:.:.:.:.:.:.:.:.:.:.:.:.:.:.:.:.:.:.:.:.:.:.:.:.:.:.:.:.:.:.%.P ",
"  & h J W Q Q / / / Q R R R R R R R R R R R R R R R R R R R Q Q R R R R R R Q Q R R R R R R R R R R R R R R R R R R E Q E Q L B ",
"  X 5 n b Z Z S D S A A A A A A A A A A A A A A A A A A A A A A A A A A A A A A A A A A A A A A A A A A A A A A A A A Z b m z e ",
"  + > u g v C V V V V V V V V V V V V V V V V V V V V V V V V V V V V V V V V V V V V V V V V V V V V V V V V V V V V c g g 4 O ",
"% 2 j m J ^ =.=.@.@.+.@.@.@.+.+.+.@.@.@.+.+.+.+.+.+.+.+.+.+.@.@.+.+.+.+.+.+.@.@.@.@.@.@.+.+.+.+.+.@.@.@.+.+.+.+.@.-.=.W J J M s ",
"; | L S W ( %.%.$.:.;.:.;.;.;.;.:.:.:.:.:.:.;.:.;.;.;.;.:.:.:.:.;.;.;.;.:.:.:.:.:.:.;.:.;.;.;.;.:.:.:.:.;.;.;.;.<.:.:.:.( W ^ O.",
"a Y.,.Y Y W R R -.:.;.:.:.:.:.:.:.:.:.:.:.:.:.:.:.:.:.:.:.:.:.:.:.:.:.:.:.:.:.:.:.:.:.:.:.:.:.:.:.:.:.:.:.:.:.;.;.;.;.:.:.R 8./.",
"a F.>.U Y +.:.:.:.:.:.:.:.:.:.:.:.:.:.:.:.:.:.:.:.:.:.:.:.:.:.:.:.:.:.:.:.:.:.:.:.:.:.:.:.:.:.:.:.:.:.:.:.:.:.:.:.:.:.:.:.+.g./.",
"i U.>.F Y @.:.$.$.;.:.;.;.;.;.;.;.;.;.;.;.;.;.;.;.;.;.;.:.:.;.;.;.;.;.;.;.;.;.;.;.;.;.;.;.;.;.;.;.;.;.;.;.;.;.;.;.:.:.:.:.:.k./.",
"i U.>.F R @.:.;.;.;.:.;.;.;.;.;.;.;.;.;.;.;.;.;.;.;.;.;.;.;.;.:.;.:.;.;.;.;.;.;.;.;.;.;.;.;.;.:.;.;.;.;.;.;.;.;.;.;.;.:.:.:.e._.",
"i U.>.R $.:.;.;.;.;.;.:.:.:.:.:.:.:.:.:.:.:.:.:.:.:.:.:.:.:.:.:.:.:.:.:.:.:.:.:.:.:.:.:.:.:.:.:.:.:.:.:.:.:.:.;.;.;.:.:.:.Q 8._.",
"i U.>.R :.;.;.;.;.;.;.;.;.;.;.;.:.:.;.;.;.;.:.;.;.;.;.;.;.;.;.;.;.:.:.;.;.;.;.;.;.;.;.;.;.;.;.;.:.;.;.;.;.;.;.:.:.:.+.( ( Y 8./.",
"i U.>.R :.;.;.;.;.;.;.;.;.;.;.;.:.:.;.;.;.;.;.;.;.;.;.;.;.;.;.;.:.:.;.;.;.;.;.;.;.;.;.;.;.;.;.;.:.:.;.;.;.;.;.;.:.:.( R R Y 8._.",
"i U.>.R :.:.:.;.;.;.;.;.;.;.;.;.;.;.;.;.;.;.;.;.;.;.;.;.;.;.;.;.;.;.;.;.;.;.;.;.;.;.;.;.:.:.:.;.;.;.;.;.;.;.;.;.;.;.:.:.-.R 8./.",
"i U.>.Y ( -.:.:.:.:.;.;.;.:.;.;.;.;.;.:.:.:.:.:.:.:.;.;.;.:.;.;.;.;.;.:.:.:.:.:.;.;.;.;.:.:.:.;.:.;.;.:.:.:.:.:.;.;.:.-.R U 8._.",
"i U.>.F Y %.-.@.@.@.@.@.@.@.@.@.@.@.@.@.@.@.@.@.@.@.@.@.@.@.@.@.@.@.@.@.@.@.@.@.@.@.@.@.@.@.@.@.@.@.@.@.@.@.@.@.@.@.@.+.Y U 8./.",
"i U.>.Y W Y Y Y Y Y Y G G G G G G G G G G G G G G G G G G G G G G Y Y Y Y Y Y Y Y Y Y G G G G G G G G G G G G G G G Y Y Y U 8._.",
"i U.,.Y Y R Y Y Y Y Y Y Y Y Y Y Y Y Y Y Y Y Y Y Y Y Y Y Y Y Y Y Y Y Y Y Y Y Y Y Y Y Y Y Y Y Y Y Y Y Y Y Y Y Y Y Y Y Y Y Y Y 8._.",
"a U.,.Y Y Y Y Y Y Y Y Y Y Y Y Y Y Y Y Y Y Y Y Y Y Y Y Y Y Y Y Y Y Y Y Y Y Y Y Y Y Y / Y Y Y Y Y / / / / Y Y Y Y U U U Y U F 8./.",
"a P.7.T E T T R W W W W E E E E E E E E E E E E W W W W E E E T T T E E T T T T W W W W E E E E E E E E E E E W W W W W W T 8./.",
"% N 0.C.m.m.m.m.m.m.m.m.m.m.m.m.m.m.m.m.m.m.m.m.m.m.m.m.m.m.m.m.m.m.m.m.m.m.m.m.m.m.m.m.m.m.m.m.m.m.m.m.m.m.m.m.m.m.m.m.m.H.7.! ",
"+ 8 } 0.0.0.0.0.0.0.0.0.0.0.0.0.0.0.0.0.0.0.0.0.0.0.0.0.0.0.0.0.0.v.v.v.v.v.v.v.v.v.v.b.b.b.b.b.v.v.b.b.b.b.b.p.p.p.p.p.p.q. .d ",
"$ 2 e q q q q q q q q q q q q q q q q q q q q q q q q q q q q q w h k k k k k k k k k k k k k k k k k k k k k k k k k k k k j s ",
"  # : t e t t t 6 6 t t 6 6 6 6 6 6 6 6 6 6 6 t 6 6 t t t e e y u z z l l l l l l l l l l l l l l l l l l l l l l l l l l l 6 $ ",
"    < - - - - - 1 1 1 1 1 1 1 1 1 1 1 1 1 1 1 1 1 1 1 : : - : 1 9 9 r r r r r r 7 7 r r r r r r 7 7 r r r r r r r r r r 7 7 3   "
};
