/* XPM */
static char *_7498307268c4ceb860d5963ebbd3db5Q3vYfzcmkwywliKj[] = {
/* columns rows colors chars-per-pixel */
"64 64 233 2 ",
"   c None",
".  c #070809",
"X  c #0B0909",
"o  c #090707",
"O  c #120A0A",
"+  c #1C0B0B",
"@  c #150607",
"#  c #1F1112",
"$  c #240C0B",
"%  c #2A0C0C",
"&  c #260A07",
"*  c #350C0D",
"=  c #3B0D0F",
"-  c #2D130C",
";  c #25120A",
":  c #35140C",
">  c #2C1313",
",  c #251415",
"<  c #3B1210",
"1  c #331919",
"2  c #2F0F10",
"3  c #382425",
"4  c #480E10",
"5  c #4D1113",
"6  c #461817",
"7  c #541213",
"8  c #5B1213",
"9  c #561818",
"0  c #48140E",
"q  c #670E12",
"w  c #631214",
"e  c #6C1214",
"r  c #69181A",
"t  c #731315",
"y  c #7C1415",
"u  c #7B1518",
"i  c #761917",
"p  c #4B2715",
"a  c #5B2B10",
"s  c #6D2717",
"d  c #792815",
"f  c #683A14",
"g  c #723E17",
"h  c #442728",
"j  c #512727",
"k  c #473636",
"l  c #593B3B",
"z  c #762B24",
"x  c #704B2C",
"c  c #5C4E4D",
"v  c #574646",
"b  c #675858",
"n  c #675353",
"m  c #6D6463",
"M  c #786867",
"N  c #7D7271",
"B  c #841516",
"V  c #8B1517",
"C  c #831618",
"Z  c #8C1618",
"A  c #841A1A",
"S  c #8C1A1A",
"D  c #871A15",
"F  c #941619",
"G  c #9C171A",
"H  c #941A1A",
"J  c #9C1A1B",
"K  c #911717",
"L  c #A3171A",
"P  c #A9171B",
"I  c #A41A1C",
"U  c #AC1A1C",
"Y  c #B31A1C",
"T  c #BC1A1C",
"R  c #B6171C",
"E  c #892618",
"W  c #98281C",
"Q  c #983617",
"!  c #A5211E",
"~  c #AB221F",
"^  c #A22B1C",
"/  c #B2221F",
"(  c #BC211E",
")  c #A5341D",
"_  c #AB351C",
"`  c #A93A1B",
"'  c #B43B1D",
"]  c #8E1D20",
"[  c #981E22",
"{  c #AB1E21",
"}  c #B71F21",
"|  c #852422",
" . c #9A2A24",
".. c #9A342C",
"X. c #A42322",
"o. c #AB2422",
"O. c #AC2A24",
"+. c #A82C27",
"@. c #B42421",
"#. c #BB2421",
"$. c #B52B24",
"%. c #BA2B25",
"&. c #B82C29",
"*. c #A9332B",
"=. c #BC342A",
"-. c #B93127",
";. c #B73730",
":. c #A23A3C",
">. c #CD171C",
",. c #C41C1D",
"<. c #CB1A1D",
"1. c #D1171C",
"2. c #D41A1D",
"3. c #D91C1D",
"4. c #C5211E",
"5. c #CB221F",
"6. c #CD2B1D",
"7. c #D3231E",
"8. c #D9211F",
"9. c #DA2A1F",
"0. c #C83A1D",
"q. c #D53B1C",
"w. c #D9381D",
"e. c #C42321",
"r. c #CA2421",
"t. c #C32B24",
"y. c #CA2C24",
"u. c #C32E2B",
"i. c #DB2B20",
"p. c #D62721",
"a. c #C3352B",
"s. c #CB3329",
"d. c #C4392E",
"f. c #C83726",
"g. c #DC3321",
"h. c #DB3C21",
"j. c #C43C32",
"k. c #C93E31",
"l. c #CC3636",
"z. c #D03835",
"x. c #C61C20",
"c. c #914F19",
"v. c #A94618",
"b. c #B8471B",
"n. c #B85718",
"m. c #A75C1C",
"M. c #AF671E",
"N. c #8F5B38",
"B. c #B54539",
"V. c #A8422E",
"C. c #AD7335",
"Z. c #96673C",
"A. c #C34E1C",
"S. c #D8461C",
"D. c #C3541A",
"F. c #CD5C1B",
"G. c #CA571A",
"H. c #D55A1B",
"J. c #CB621A",
"K. c #D56517",
"L. c #D3621A",
"P. c #D56B1C",
"I. c #D9681A",
"U. c #DD731A",
"Y. c #DA7719",
"T. c #E27C19",
"R. c #E27717",
"E. c #E0691F",
"W. c #D84525",
"Q. c #CD4134",
"!. c #CD4639",
"~. c #D04332",
"^. c #D14C3C",
"/. c #D3503E",
"(. c #CB6F2A",
"). c #CB3E40",
"_. c #995B5A",
"`. c #884D4D",
"'. c #B74B46",
"]. c #A35251",
"[. c #9E615F",
"{. c #9B6868",
"}. c #867A7A",
"|. c #A16B6A",
" X c #A87C7B",
".X c #AD7270",
"XX c #A7774D",
"oX c #D35241",
"OX c #D25A4B",
"+X c #CC524A",
"@X c #CB6152",
"#X c #C26362",
"$X c #B8843C",
"%X c #E38219",
"&X c #E8891A",
"*X c #EC961C",
"=X c #F19B1A",
"-X c #F29A17",
";X c #F4A71D",
":X c #F1A61E",
">X c #CF892F",
",X c #E39822",
"<X c #E08A21",
"1X c #F0A322",
"2X c #B8865C",
"3X c #B28B75",
"4X c #C68A43",
"5X c #E4BA60",
"6X c #8B8282",
"7X c #938988",
"8X c #9D9694",
"9X c #AC8685",
"0X c #B38584",
"qX c #A39897",
"wX c #BB9390",
"eX c #ACA5A5",
"rX c #AEA8A8",
"tX c #B4AAA9",
"yX c #B9B5B4",
"uX c #BCB9B8",
"iX c #BAB1AE",
"pX c #C4BBB9",
"aX c #F1D39C",
"sX c #F5DBAC",
"dX c #C6C3C3",
"fX c #D2CFCF",
"gX c #DDDBDB",
"hX c #D7D5D4",
"jX c #D9D1CF",
"kX c #E1DEDE",
"lX c #ECEBEB",
"zX c #E8E6E5",
"xX c #F3F2F2",
/* pixels */
"                                                                                                                                ",
"                    | S H J X.J J I o.o.U %.a.=.-.-.$.$.=.=.&.-.%.%.%.%.%.$.o.~ o.o.o.~ o.@.$.-.=.j.j.d.;.                      ",
"                    H J J ! ! o.%.$.$.&.&.@.%.j.Q.=.%.%.-.=.j.a.@.@.o.o.o.O.O.X.! O.%.$.O.W W X.X.X.O.-.=.                      ",
"                    ;.! K V B B Z Z F F G G G L U L G G G L U P L G G G G G Z B y y K F B B y y y V  .=.*.                      ",
"                    *.j.$.I J B B F G G G J K B B Z G G G F V V F L Y Y U I J J L F B Z J I ! $.-.j.!.$.u                       ",
"                      O.j.k.a.%.! I P U P U U ~ ! U U U U ~ o.O.%.%.#.@.$.%.%.=.a.j.j.j.j.a.=.=.k.Q.o.K r                       ",
"                      G @.Q.d.a.%.o.~ @.#.#.t.a.d.d.d.j.k.Q.!.^.^.^.^.!.!.^.^.^.^.oXoX^.k.%.@./ $.$.Z V                         ",
"                      H @.s.#.Y / ! A A o.%.s.d.k.Q.^.^.^.^.^.^.^.oXoXoX/./././.oXoX^.d.%.Y Y U Y U K u                         ",
"                      S U r.,.T Y L u % 7 A W @.u.s.k.k.k.Q.Q.Q.~.~.Q.~.~.~.Q.Q.Q.d.%.#.#.#.} Y / P Z w                         ",
"                        I 4.,.T T P Z = + < * w K U T ,.e.e.y.y.y.s.s.s.y.y.t.#.T ( #.e.t.t.t.#.( U B 8                         ",
"                        I ,.,.,.,.T L e & N.x ; * t G Y T T T ,.,.T T T T T T T T T T r.r.y.s.u.%.~ B                           ",
"                          } r.,.,.,.Y Z * x aX2Xx & 4 B L R T T ,.,.,.,.,.,.,.,.,.,.,.,.r.r.y.u.a.o.Z                           ",
"                          #.r.r.r.5.T L 8 ; $XC.>XC.f - 7 Z L R ,.,.,.,.,.,.,.,.,.,.,.,.,.5.r.e.y.o.J                           ",
"                          #.r.p.p.p.,.R C % g a ; f m.c.p = 8 u L T ,.,.,.,.,.,.,.<.<.,.,.,.,.( #.!                             ",
"                            U r.y.4.,.,.U 7 : s X . O : s s < % 4 C U T ,.<.>.<.<.>.>.>.<.,.,.Y L H                             ",
"                          r e i | t t Z L C * 7 + . X . o $ < - O $ 7 C I T <.1.1.1.1.1.1.<.T G V u                             ",
"                          i w $ h l k k h 5 * % $ X X X X . . O + X + & 5 u J Y T ,.>.>.T Y G y i u                             ",
"                          Y I < c zXzXzXhX}.# # > + X o X X O , m k c N , % * 4 5 e u w 9 6 6 2 7 K                             ",
"                          r.I % c lX}.n qXlXb 3 qXeX7Xk O k qX7X6X}.yXxXqX1 b qX8Xc > m uXuXm $ w G                             ",
"                          } Z + c lXv o , pXeX6XgXrXdXdXk pXfX}.uXyXrXxX7Xm kXiXpXjXb fXgX8Xk 4 u G H                           ",
"                          I C @ c lXv o O eXyXdX6X+ k gXb hX}.$ yXeXN gX3 qXyXp 2X3XM tXlX7X3 7 u Z                             ",
"                          J u @ c lXv @ 1 dXrXdXN & k gXm hX}.+ yXeX}.kX3 }.3X$XZ.tX}.h 8XzX8X< t B                             ",
"                          H e + c lXqX}.yXzXb eXdXl `.gXc gX6X$ uXtXN lXn c.>XXX}.kXM b 7XjXtX> t B                             ",
"                          S t $ v jXgXgXdXb + k uXqX`.b 1 6Xc + N M h 3X(.J.g iXhX7Xk yXhXuXc = B Z                             ",
"                          ] Z 5 6 j j j 9 e e * , 3 d 0 X O O X X + f J.v.: ; h h 2 % 3 3 1 1 z L G                             ",
"                          o.,.4.T T T T ,.2.,.L w + 9 d X X X . ; c.U.Q $ * Z U Y R U L L X.'.j.,.L                             ",
"                          } 7.p.3.3.3.3.2.2.2.>.L 8 - m.- . o p >X<Xs $ 4 L 1.3.3.3.3.3.3.1.<.,.,.U                             ",
"                          { 7.i.8.3.3.2.1.2.2.2.Y y % m.g + x 5X>Xa & t Y 2.z.l.l.l.).l.l.+Xu.,.r.U                             ",
"                            r.g.9.3.3.2.1.2.1.1.,.Z % x 4X2XaX4X0 % C <.2.p..X XwX0X|.3X0X9X].,.r.~                             ",
"                            5.i.9.3.3.2.1.1.1.1.,.K * p aXsXC.: % K <.2.2.l._.`._.{.{._.[.|.:.r.f.o.                            ",
"                            ,.i.9.3.3.2.1.1.1.1.<.G 8 & 2XN.$ * G >.1.1.1.#X[.0X9X X9X|. X9XV.f.f.X.                            ",
"                            T 8.p.3.3.2.1.1.1.1.>.U u & 0 + = G >.1.1.1.1.'.].]._._.|._.|.|.V.W.f.I                             ",
"                            R 2.8.3.3.2.1.1.1.1.1.T K = + w L >.1.1.1.1.1.>.,.<.<.l.+X+X@X@X~.f.%.J                             ",
"                          X.R >.8.3.3.2.1.1.1.1.1.<.G w u T >.1.1.1.1.1.1.1.1.2.2.2.p.g.W.W.h.t.U H                             ",
"                          X.R >.2.3.3.2.1.1.1.1.1.>.U G ,.1.1.1.1.2.1.1.1.1.1.1.2.8.g.h.S.w.6.( L K                             ",
"                          X.Y ,.2.3.3.2.1.1.1.1.1.>.,.<.1.>.>.2.>.2.7.7.1.1.1.1.7.g.w.S.w.p.5.T J Z                             ",
"                          X.Y T 1.3.3.3.2.1.1.1.1.>.<.5.6.S.S.S.I.I.I.H.q.1.>.2.i.g.h.g.i.7.,.Y F K                             ",
"                          { Y T >.3.2.2.1.1.<.6.q.S.H.H.U.&XT.%X&X%XT.U.S.<.5.i.g.g.9.7.3.1.,.U K K                             ",
"                          I Y R <.2.3.2.q.H.E.I.I.b.A.F.L.K.R.&XU.D.U.L.6.,.p.g.9.7.2.1.3.>.T L Z J                             ",
"                          { Y Y ,.1.2.S.P.D.b._ ) W ) ` D.F.F.I.U.U.F.0.5.y.q.q.q.S.S.w.1.<.R K Z J J                           ",
"                          { Y U T >.2.0._ ^ A._  . .` b.P.L.U.R.U.R.A.) _ _ b.P.Y.T.%X%X6.x.I B B J X.                          ",
"                          { U P Y <.1.( _ *._ ) v.` D.F.D.D.F.F.L.F.W | W E b.A.G.L.T.I.5.#.H y y F o.                          ",
"                          U P P U T ,.G K ^ ) ) ) D.Y.J.U.I.D.b.G.' E ) b.b.L.K.%X1XT.0.y.@.B B B B [                           ",
"                          U P U R T Y V y u W ` ' J.K.P.U.I.K.D.G.W W D.I.F.J.%X=X<X' %.s.#.L F K K ]                           ",
"                          o.Y R ,.,.Y Z y t e Q F.&X%XU.R.U.U.P.` E _ A.F.T.&X-X=Xb.! -.y.4.R L L P [                           ",
"                          I R T ,.,.T G B t q i Y.=XY.*X%XR.R.Y.d ) A.G.U.T.&X;XY.^ o.%.r.,.T Y L G                             ",
"                            Y T T ,.,.P F y e q c.1X;X;X;X*X*Xn.t b.I.R.Y.R.-X&X) J @.( ,.T T R U Z                             ",
"                            -.( T ,.,.R P Z t w w M.;X;X1X;XK.i q v.U.T.&X&X&Xb.K ! Y T T T R Y U F                             ",
"                            #.e.( T T Y U G B e q d ,X=X*X%Xv.e q E T.%X&X=Xn.V J U R R T R Y U P G U                           ",
"                          J U #.T T T Y P P K y q w n.-X-XY.E i e t Y.-X=XY.E Z I Y Y Y Y Y U U L Z J                           ",
"                          G L / T T R P P P L Z y e Q *X=Xv.V H Z y n.:X<XQ V I U Y Y Y Y Y U P L B u                           ",
"                        *.X.@.%.R R U L L U U I H u y Q Q D H J J B E v.Q Z ! / @.Y Y U U Y U P U K e i                         ",
"                        *.j.%.( Y P L P U ~ ~ ~ J B t e t V J W W Z y y V J ~ ~ ~ ~ U P U U U P P I t w                         ",
"                        H / @.@.P L L I I I I I J Z u y B H J ! ! H Z V H L L L L I I U U U U P P / Z w                         ",
"                        H @.%.@.I L L G K F G G J F Z B Z H J J ! J H H H J J G J J J L I P P U P @.o.e 9                       ",
"                      i ! %.-.%.I F Z V V V Z Z Z Z V Z Z K H H H C i w w u Z H H F H J J L ~ ~ U @.!.A 9                       ",
"                      S $.a.d.O.Z B B B B B u y y y u B B B u t w 8 7 5 5 7 8 e e t u u B Z H ~ $.=.oXB.r                       ",
"                      '.@X@X'...| w w 8 8 8 8 w 8 8 8 w w w 8 7 5 5 5 5 8 9 5 7 5 7 7 7 8 8 8 w A X.j.OX..                      ",
"                      B.'...z r 9 7 7 8 7 7 7 7 7 7 7 8 8 8 8 7 8 8 w e t e 8 w w w 8 8 w w w w w t V *.;.                      ",
"                    *. .y t i u A S Z H S u y A A D B A u u V S H J J J H Z B Z H Z Z Z Z H H H S u C S O.                      ",
"                    S B A A A u i e r t t e e t i t e e t y y t t t y t e e w w w w w w w w 8 8 8 w i A S                       ",
"                    A B y i e 8 7 7 9 7                                           9 9 9 7 7 5 5 w i B V u                       ",
"                                                                                                                                ",
"                                                                                                                                "
};
