/* XPM */
static char *fe2b7a5fa5884b83a725fc36cb01145f[] = {
/* columns rows colors chars-per-pixel */
"64 64 256 2 ",
"   c #1B170D",
".  c #070D17",
"X  c #09161C",
"o  c #1C1C15",
"O  c #1D1D1A",
"+  c #171617",
"@  c #140C0C",
"#  c #280606",
"$  c #360A05",
"%  c #25160B",
"&  c #35120C",
"*  c #260915",
"=  c #231C15",
"-  c #241E1A",
";  c #2B1D1C",
":  c #2A1615",
">  c #371918",
",  c #340C15",
"<  c #1D221B",
"1  c #1D2416",
"2  c #28230D",
"3  c #232115",
"4  c #292215",
"5  c #25231B",
"6  c #2A231C",
"7  c #28291B",
"8  c #322B1D",
"9  c #352819",
"0  c #38331A",
"q  c #050A25",
"w  c #061827",
"e  c #191A26",
"r  c #071936",
"t  c #161B34",
"y  c #020B34",
"u  c #231D23",
"i  c #291C26",
"p  c #371B24",
"a  c #321D39",
"s  c #1C242C",
"d  c #192526",
"f  c #082239",
"g  c #182738",
"h  c #19343A",
"j  c #0D2729",
"k  c #252322",
"l  c #2D2523",
"z  c #2D2A23",
"x  c #2D252B",
"c  c #2D2A2B",
"v  c #232728",
"b  c #322423",
"n  c #322B24",
"m  c #332C2A",
"M  c #3B2D2B",
"N  c #392726",
"B  c #353126",
"V  c #3C3526",
"C  c #36312C",
"Z  c #3C342B",
"A  c #3F392C",
"S  c #3F3C22",
"D  c #2B2C34",
"F  c #2A2A3A",
"G  c #252738",
"H  c #342A36",
"J  c #2B3136",
"K  c #3C3533",
"L  c #3D3934",
"P  c #3E3B3B",
"I  c #363538",
"U  c #26312D",
"Y  c #461A19",
"T  c #4B1210",
"R  c #512C18",
"E  c #4B1D27",
"W  c #492727",
"Q  c #552727",
"!  c #42342C",
"~  c #423B2D",
"^  c #493C2D",
"/  c #473629",
"(  c #492A34",
")  c #423432",
"_  c #433C32",
"`  c #4B3E34",
"'  c #423B3B",
"]  c #49383A",
"[  c #573839",
"{  c #5C2E2F",
"}  c #663A39",
"|  c #743739",
" . c #66322D",
".. c #651E21",
"X. c #3A403D",
"o. c #4D442C",
"O. c #45422C",
"+. c #51462D",
"@. c #464134",
"#. c #4B4434",
"$. c #46413B",
"%. c #4B453B",
"&. c #4E4A39",
"*. c #534533",
"=. c #554835",
"-. c #544B3A",
";. c #5C4D3C",
":. c #544739",
">. c #5C513C",
",. c #55513B",
"<. c #555329",
"1. c #69493C",
"2. c #686838",
"3. c #0C1C43",
"4. c #0C2646",
"5. c #172846",
"6. c #1B334A",
"7. c #162C53",
"8. c #173458",
"9. c #0D2754",
"0. c #252B47",
"q. c #273649",
"w. c #373647",
"e. c #273855",
"r. c #383C56",
"t. c #322A49",
"y. c #283B65",
"u. c #363D6B",
"i. c #153264",
"p. c #443C43",
"a. c #453946",
"s. c #4D384A",
"d. c #693B42",
"f. c #7A3C41",
"g. c #37444B",
"h. c #2B4558",
"j. c #364658",
"k. c #344D54",
"l. c #2C4967",
"z. c #374A66",
"x. c #3A536B",
"c. c #384A74",
"v. c #3A547A",
"b. c #2A4D77",
"n. c #1D4260",
"m. c #4B4544",
"M. c #4F4943",
"N. c #474449",
"B. c #544B46",
"V. c #5E5343",
"C. c #595449",
"Z. c #454758",
"A. c #5B5452",
"S. c #47515A",
"D. c #6A4847",
"F. c #734C4B",
"G. c #774749",
"H. c #6A5E4B",
"J. c #635948",
"K. c #76544C",
"L. c #635C53",
"P. c #675B57",
"I. c #7A5655",
"U. c #734C52",
"Y. c #6D654A",
"T. c #72664D",
"R. c #6B6354",
"E. c #6A635A",
"W. c #696555",
"Q. c #756958",
"!. c #7A7755",
"~. c #464C67",
"^. c #475668",
"/. c #545468",
"(. c #465878",
"). c #565C79",
"_. c #414D7E",
"`. c #675968",
"'. c #4A627B",
"]. c #576278",
"[. c #49636B",
"{. c #736964",
"}. c #7A7468",
"|. c #6B6A75",
" X c #8A373E",
".X c #8A4A3D",
"XX c #894A49",
"oX c #97494A",
"OX c #895348",
"+X c #85585A",
"@X c #955252",
"#X c #82765E",
"$X c #8D6358",
"%X c #845C64",
"&X c #886566",
"*X c #857A62",
"=X c #8B7C65",
"-X c #8D7E69",
";X c #857766",
":X c #907F69",
">X c #916F70",
",X c #A96663",
"<X c #868654",
"1X c #8C8266",
"2X c #8D826B",
"3X c #8D896C",
"4X c #93846D",
"5X c #938A6E",
"6X c #98876F",
"7X c #8C8675",
"8X c #948671",
"9X c #988771",
"0X c #968A72",
"qX c #9A8C75",
"wX c #9E8E79",
"eX c #928C7C",
"rX c #9E927A",
"tX c #9A9278",
"yX c #9A976E",
"uX c #A08F7A",
"iX c #A1927D",
"pX c #A2957E",
"aX c #A5957E",
"sX c #A2997D",
"dX c #A5A579",
"fX c #375489",
"gX c #3C6896",
"hX c #465986",
"jX c #545C84",
"kX c #4B6486",
"lX c #586988",
"zX c #476996",
"xX c #547195",
"cX c #656C87",
"vX c #67748D",
"bX c #667493",
"nX c #737C95",
"mX c #666F91",
"MX c #4B6DA6",
"NX c #957D8A",
"BX c #72839F",
"VX c #928E87",
"CX c #A69680",
"ZX c #A59380",
"AX c #A69982",
"SX c #AA9B85",
"DX c #A89781",
"FX c #A69291",
"GX c #B1AF92",
"HX c #9B9DAA",
"JX c #C3BAAD",
"KX c #E1DCBA",
"LX c #E3E3B6",
"PX c #D1CFB1",
"IX c #F0EFCF",
"UX c #E6DDCE",
/* pixels */
"iXiXZXZXZXZXaXaXpXsXsXsXsXsXsXsXAXAXSXAXZXaXaXaXaXaXSXuXSXSXSXSXAXAXAXAXrXpXAXSXAXAXAXAXiXZXiX9XqXqXqXqXqXqXwXwXrXrXrXrXqXqXqXqX",
"wXwXwXwXwXwXuXrX0X0X0X0X0X0X9X9XiXiXiXrXuXwXwXuXqXqXZXqXiXiXaXaXpXpXpXpXrXpXAXSXZXZXZXZXwXiXrX8XqXqXqXqXqXqXqXqXqXqXqXqXqXqXqXqX",
"ZXZXZXZXZXZXDXAXrXrXrXrXrXrXrXrXiXiXiXrXuXwXwXwXqXqXZXqXwXrXwXwX8X8X8X8X2X4X9XqX9X9X9X9X9XqX9X-X4X4X4X4X4X4X4X4X4X4X4X4X4X4X4X4X",
"uXuXiXiXiXiXiXiXrXrXrXrXrXrXrXrXSXSXSXAXZXaXaXaXaXaXSXuXZXZXZXZXpXpXpXpXrXpXAXSXAXZXZXZX9XqXqX-X4X4X4X4X4X4X4X4X4X4X4X2X4X:X:X:X",
"uXuXuXuXwXwXqXqXrXtXtXtXtXtXrXrXiXiXiXiXaXiXqXqXqXuXSXqXaXaXaXaXwXwXwXqXqXqXqXqXrXrXrXrXqX9XqX=X4X4X8X9X9X9XqXqXqXqXqXqX9X9X9X9X",
"wXwXwXwXwXwXuXwXwXqXqXqXqXtXtXtXrXrXrXrXiXuXqXqX9XiXSX4XiXiXiXiXqXqXqXqX0X0X0X9X9X9X9X9X4X2X9X*X=X=X2X4X4X4X4X4X-X-X-X-X-X-X-X-X",
"qXqXqXqXqXqXqXqXqX0X0X0X0X0X0X0XqXqXqXqXwXqX9X4XqX4X-XT.Q.Q.Q.Q.#X#X#X#X*X*X*X*X2X2X2X-X-X=X4X#X*X*X=X-X-X-X-X-X=X=X=X=X=X=X-X-X",
"9X9X9X9X4X4X4X4X5X5X5X5X5X5X9X9X9X0XqXqXqXqX8X8X;XR.Q.Q.H.H.H.H.H.H.H.J.J.J.H.Y.Y.Y.Y.Y.Y.H.Q.J.J.H.H.Y.Y.Y.R.R.Y.Y.T.T.Q.Q.Q.Q.",
"wXwXwXwXqXqX6X4X4X5X5XqXrX5X1X1X#X3X7X4X}.T.R.E.P.A.A.L.A.A.E.E.E.L.R.J.V.Q.Q.Q.E.E.L.W.Q.Q.{.Q.W.R.W.W.J.Y.L.L.V.R.H.V.V.J.J.J.",
"qXqXqXqXqX9X4X4X2X3X5X5X0X5X5X0X7XtX7X}.Y.&.&.L.m.A.M.B.M.B.M.M.C.{.@.&.O.A $.M.M.' ' @.C.C.A.B.C.M.M.C.,.B.C.C.C.L.E.L.E.E.E.E.",
"9X9X9X9X5X4X4X1X=X2X3X5X3X5X5X4X7XE.B.-.#.O.Y.GX}.B.B.M.%.W.3XR.B.A.$._ V.E.C.N.p.M.' K P.B.p.N.m.%._ Z A A m C C.C.' ' %.%.%.m.",
"4X4X4X4X4X4X1X=X=X2X2X4X3X4X2X}.B.M.%.&.%.O.<XLXJXN.M.&.-.tXIXGXM.M.' C.GXUXVXp.a.N.$.eXGX}.p.N.p.' R.tXQ.%.' ) m.M.C.L.&.&.M.M.",
"4X4X4X4X9X4X4X2X8X-X7X7X2X}.J.#.%.B.@.&.M.~ <.yX}.P M.@.O.Q.GX3X&.@.@.,.<XLXVXa.N.' V.dXIXAX' N.N.) !.LXJXB.Z _ L %.sXLXeX_ %.@.",
"2X2X2X2X1X=X=X*X-X;X2X}.J.-.#.#.tXPX;XK ) A 2 9 L p.' M.V 0 +.o.C.&._ S 2.!.%.p.p.' o.Y.GXW.L p.p._ 2.dXGX$.Z A K $.!.PX7X$.@.@.",
"5X5X5X5X=X=X#X*X;XR.V.O.@.H.-.o.<XLXAX) ' m B _ ' p.M.$.m 6 Z $.B.M._ n B B _ ' K ' m B m Z ' P ' m 0 %.L K Z C H m <.Y.%.' $.L ",
"4X4X4X4X1X1X=X;XP.%.-.V.%.) ` 0 <.<X,.' P K P m.' m.N.P m I m.m.m.m.] m K p.) ) ' I i x I K ' ' K z 5 l H x K C x k 8 0 _ m.' ' ",
"*X1X=X#X5X!.L.] K M ;XUXHXa.Z 8 8 8 B K K P P P ' ' P P P P P P P ' ] ] K ) [ s.s.t.H ' ' _ ) ] K z c J g.g.w.C k c C L ) L K C ",
"Q.2X8X*XY.=.Z a.H K Q.JXNXH Z n C K K K P P P P ' ' P P P P P P X.P ] ] ' ' ( ( a a ( ) Z Z p.p.N.J g.].vXHXcXD c m K L ) L K m ",
";X}.E.>./ <.V.` K m V @.H w.z Z K K K K P P P P ' ' p.p.' ' ' P X.P ' ' $.' ) ( ( p ; _ ) H ).bXHXlX(.kXl.x.nXq.I I K L L Z m n ",
"{.M.] V.<.yXKXR.M M 9 = x a.M.Z L K K K P P ' P ' ' ' ' ' p.' P X.X.P P K ) ] [ U.&XI./ ( s.mXy.y.xXMXfXr e.vXG I K K K Z Z m n ",
"@.n ' b 0 T.GXY.Z K Z Z I I K K K K K K L L L L K c m L ' K L ' $.] K m I.NX>X&XK.K.$X&X; w.bXy.r (.MXzX4.e.lXq.J m m m m m m C ",
"T.}.K l 9 0 / 9 Z K Z K K K K K K K K K K K K I J J I w.N.g.A.N.' ) K K FXd.W N : % Q >XB.e lXv.r z.MXgX4.q.lXq.J m m m m m m m ",
"dXKXC.- 4 2 8 ~ Z K K K K K K C C C m m m m m J q.j.].vXbXvXBXVXN.P C z >XW : b o 6 & F.&X* r.lXg 6.zXzX5.q.lXe.D m m m m n n n ",
"2.1Xn l 6 n 8 Z Z Z K ) ! ! ) ) c D D D D D c D 0.lXbXz.e.e.4.].|.g.U o I.F.M M L.J.& Y >XE F vXj.r fXgX6.0.kXe.D m m m l z l l ",
"8 n n m m K K L A ! ) ) ! W D.M q.z.(.xXBXnXF w.g cXS.s F 0.t t bX~.J - D.+X> } ,X,XR & +Xd.: /.).3.b.gX8.q.kXq.D m m m n l l l ",
"C I L L L I L L A ! / / W F.>X{.r.xXb.l.e.nXZ.F t /.].F w.g.r.q (.lXG b { $X> { ,X,X} & XXG.: J bX8.8.xX6.6.'.q.D m m m n z l l ",
"L I F D c C P P ) ! ! / +X+XQ >X].mXg g . /.|.G s w.vXq.r.vXnX5.e.bXq.m E +XW Y @XoXOX$ | +Xb e lXv.r x.5.5.'.6.D m m m n z l 6 ",
"I N./.|.N.P I I L ! ! / >X> # ( ].cXZ.H u D nX0.I G nX0.e.lXlX(.5.mXZ.x p U.} $ XX.XOXT T +X) X h.xXg s g g (.6.D m m n n z l 6 ",
"Z.].g.g./.].q.J L 8 Q +X! : W U.`.].`.D H q cX~.s e jXhX5.bXkXkX5.(.^.G > } OX$ ..oXXXT T +X) v g (.q.s s g (.e.D n n n n l 6 5 ",
"].j.s w r ].(.s I 6 G.F.  :.>XI.H Z.|.G /.q.e.lXG t u.jXf v.zXxX5.w.lX0.p W $XT R OXoX....I.Z U e j.^.g s s hXe.D n n n m l l L ",
"lXh.q.^.g g '.k.U V I.Q % B.+X, u q.cX4.kXkX4.lXq.s 0.mX4.n.zXMX0.G lXq.H , OXR $ OXoX X@XF.z 7 d s lXe.s s ).e.D n n n m l l L ",
"lXz.4.'.'.w (.z.5 H.1.Y # M &X( m G lX7.l.xX9.(.z.5.5.lXh.4.gXMXy.q.(.0.x > | | # 1.oX@XQ &XP.= n + l.l.s s (.e.D n n n n l 6 5 ",
"(.c.8.b.kX7.7.].>  .| ,X*.% &X[ l e kXn.7.kX6.4.lXy.y z.^.q fXgXfXkXlXt.H , { XX$  .oX@X& : +XW ! @ h [.h w '.h.F x x z l 5 = = ",
"y.kX4.y.hXhXv.).+X.XOX1.K.# [ U.b e z.b.f '.x.f hXc.3.e.].y y.zXgXi.bXcXF i E U.> R oX@XV % G.} N 5 j ^.q.w x.z.F x x c l 6 5 = ",
"4.bXe.f hXhX7.G +XOX .T +XE E F.W O 6.(.r x.kX4.y.hX5.t jX7.3.zXb.i.5.mXw.H , F.W $ | XX;.% } G.> l X k.k.w e.x.F D x l l 6 6 6 ",
"r z.^.g 5.hXz.e G.| G.& XX| $ D.{ i g (.g q.kX7.7.(.q.g (.c.r '.MXb.y )./.F * [ [ #  .G.D.& Q d.p i e g.x.w 6.(.F x x l l l 6 6 ",
"g t (.r.t G ~.|.s.%X%X> E +X# G.} * e ^.q.r hXb.y ~.j.r c.(.q e.zXv.r j.).G   9 1.& Y G.F.> & F.W b O s ^.f r ^.F i H x C z 6 6 ",
"e t e.~.w.e t t.`.s.p p , +XE Q G.Y + g.g.r fXfXr 0.^.f 7.'.w 6.fXfXg G (.0.+ 9 K.& & F.G.Q & D.( p - e ~.5.r ~.w.i x x l = = C.",
"G G t r./.a.G e /.`.x H * D.} $ XXQ * D S.4.y.fXg w x.8.r [.g.w b.zXq.. (.e.< 4 F.W # 1.G. .$ [ [ ; ; + j.e.r r.w.u k l k z = _ ",
"I D x . G ~.u.0.w |.Z.i + ) F.# | { ; c /.5.i.fXg X l.l.f h.S.w i.hXq.X x.e.d o D.} : / G.f.$ { [ : ; @ g.z.r q.N.e u l l o   4 ",
"5 v v g e._.hXhXt w./.t.x : F.Y Y G.> @ /.0.r z.h w 6.x.f h ^.r 7.kXz.f 6.k.h O W } % 9 | XX> > D.> ; + G ].h.j.D l - 3 o o     ",
"3 7 v g jXy.fXhX0.e /.r.i * } { $ U.N + a.q.w h.q.q.r h.h w x.f r (.c.f h x.g s p +X/ / } G.F.` [ > ; O . s g s < 3 = = = = = = ",
"4 7 v g (.9.9.c.Z.. ~.~.x * Q G.# s.m.+ F Z.X J x.x.w q.k.w l.l.y u.hXc.5.j.0.s @ M P.] N @ ; N N i u u e + e d 1 3 3 3 5 k k v ",
"4 7 d s j.l.r c.S.g 5.z.x : Y d.p N J.= e ~.w s ^.^.q.g [.6.q.mXc.c.z.z.j.G G d + @ = ; z o = - u u u v 5 z O 5 3 3 3 3 5 5 k k ",
"Z 7 < X j '.f 6.^.g f ^.s = # } } # D.b e ^.l.6.^.q.(.j.).g q F 0.g w . s d v < 1 5 6 6 < 1 5 5 v u e - 3 o 3 3 3 l k z 6 3 7 }.",
"B z < + . k.h.X j w 4.z.d 6 : Y +XF.1.N q e.h.h.d X G t t t e X X e v d k 7 7 7 1 7 6 6 < 1 3 - u k O = 3 3 3 3 5 - k = 7 3 8 W.",
"7 7 d d j j k.[.h h l.h.d 3 : # W [ N M e t e w + < k < < O d D e e e v k k 5 6 5 6 6 6 7 3 6 ; - 5 3 = 1 1 1 1 B n 3 = 6 o   l ",
"7 5 k v v d j g.[.k.q.g v @ : : * ; : - x G d d v k 3 7 3 o o + + e e e k l k 6 6 6 6 6 6 6 ; ; - - 5 = 3 o 1 1 7X}.z 5 5 = = = ",
"5 o 6 = z c + @ @ O . e O = ; 6 ; ; - - k k k k k 5 5 7 7 3 < O O O O O O = 5 5 6 6 b ; 6 6 6 6 = n l - = = = = %.E.n 3 5 5 5 5 ",
"{.5 6 = = l n n 6 o = 6 = = = o 5 5 5 - 5 6 5 5 5 k k k k 5 < o o o o o o < 5 5 6 6 - 6 6 6 6 6 Z VXL.o 6 6 6 6 = 5 7 6 6 6 6 6 ",
"FX7 = l {.P.n = 6 6 4 % = = 3 5 3 3 3 = 7 5 6 6 k k k k k k - O o o o o o < 5 5 l - n ) 6 6 6 6 b P.L.- 6 6 6 6 = 6 = 6 6 6 6 6 ",
"C 3 6 6 }.}.= 6 n eX}.4   4 B A 3 3 3 3 7 7 5 6 6 l k x k k - = o o o o o < 5 5 6 6 {.VXl 6 6 6 = = l 6 - - = = = 6 6 = z z z z ",
"z z l b 6 b n Z 4 V.V.4 % 8 VX;X  6 6 %.L.7 6 6 6 % l x x l = = o < o o C L < 5 5 6 ) {.n 6 6 l - - 6 l - 6 6 l 6 l n n B B B B ",
"C Z Z Z n n M M 6 4 4 6 6 = _ M.5 6 3 L.FX%.5 = 8 Q.M.i i b 4 4 7 o o o }.VXz + - - = n n 6 6 6 - 6 l l 6 l n n n m Z Z A A A A ",
"Z Z Z Z Z Z M M Z K K Z l l l l C 6 6 5 $.n z 8 9 4XR.: p : J.9Xn + o o c B.z O z l 6 - n 6 6 6 6 l n n n m Z Z Z K Z Z _ _ _ _ ",
"` ` ` ` _ ! Z n Z ) ) Z _ m Z Z Z m n n l n z n % 0 ! 6 ; 4 0 T.Z + = O 5 k l z n 6 6 l l 6 6 6 6 l n n m Z Z ~ _ _ ~ ~ A A ~ ~ ",
"*.#.#.*.*.#.o.^ ^ ^ ^ ^ ! ! ! ! ! Z M N Z M n n n b b m x l 6 6 n l l l l l l l 6 7 8 8 n n n n Z ~ _ _ ~ ~ ~ ~ ~ ~ ~ A A Z A A ",
">.>.>.>.=.o.o.^ *.*.*.*.` ^ / / ! ! M M Z Z B n m m m x n n x l l l l l l l l n B V Z Z ~ ~ ~ ~ _ _ _ ~ ^ ^ ~ ~ ~ ~ ~ ~ Z Z A A ",
">.>.>.>.J.J.>.;.;.;.;.;.:.*.` ^ ` ^ ! ! ^ ! Z Z M M m n n m m n n n n n m m m m ~ ~ _ @._ _ _ _ _ ^ ~ ~ ~ ~ ~ ~ ~ ~ ~ ~ Z Z Z Z ",
">.>.>.>.J.J.>.;.>.;.>.>.;.;.:.*.*.#.^ ^ ^ ^ ~ ! Z Z m m n n n n n n n n K _ A _ _ ~ ~ _ Z Z A A ~ ~ ~ ~ ~ ~ ~ ~ ~ ~ ~ A A Z Z Z ",
"o.o.o.o.=.>.J.J.>.>.>.>.V.V.J.J.;.;.-.=.#.^ ^ ^ ) ) Z Z Z Z Z Z Z _ _ _ %.@._ _ _ _ _ _ A A A A ~ ~ ~ A A Z Z Z Z Z Z Z V Z Z Z ",
"o.o.o.o.+.=.=.;.;.;.;.;.;.;.;.;.;.-.*.*.*.#.o.^ #.@._ _ ~ ~ ~ ~ @.@.@._ @.@.~ ~ ~ ~ ~ ~ ~ A A A ~ ~ ~ A A Z Z Z Z Z Z Z V V V V ",
"o.o.o.o.+.+.+.*.=.=.=.=.=.=.=.=.=.*.o.o.o.o.=.#.:.&.%.@.@.@.@.@.#.%.@.^ ^ ~ A V A A A A A A A A ~ ~ ~ A A Z Z Z Z Z Z Z V V V V ",
"o.o.o.o.+.+.+.+.*.*.*.*.*.*.*.*.*.o.^ ^ o.o.o.#.#.#.@.@.#.#.#.#.#.%.@.^ ~ ~ V V V V A A Z Z A A ~ ~ ~ A A Z Z Z Z Z Z Z V V V V "
};
