/* XPM */
static char *e605b62844dc499ea4904f4a57e6c0b7[] = {
/* columns rows colors chars-per-pixel */
"64 64 233 2 ",
"   c None",
".  c #0D0C0F",
"X  c #0D0D11",
"o  c #171317",
"O  c #241D1F",
"+  c #261E23",
"@  c #2A252B",
"#  c #373137",
"$  c #7F382F",
"%  c #453D43",
"&  c #52474E",
"*  c #62585D",
"=  c #7A6A6E",
"-  c #83342F",
";  c #8C2E33",
":  c #972B39",
">  c #933138",
",  c #A32B3A",
"<  c #A6383D",
"1  c #8D2545",
"2  c #8C2B4A",
"3  c #922546",
"4  c #94294A",
"5  c #9A2A4C",
"6  c #962749",
"7  c #8C3552",
"8  c #983354",
"9  c #92314A",
"0  c #A63A45",
"q  c #AA2D55",
"w  c #A82D56",
"e  c #A93157",
"r  c #B2335C",
"t  c #B9335E",
"y  c #BC3561",
"u  c #BE3963",
"i  c #B53860",
"p  c #C23764",
"a  c #C33866",
"s  c #C23E6A",
"d  c #95415D",
"f  c #934350",
"g  c #B75A57",
"h  c #AC4F4D",
"j  c #B46C5C",
"k  c #994763",
"l  c #98526A",
"z  c #A84666",
"x  c #A95875",
"c  c #BD577A",
"v  c #AA506E",
"b  c #8E707A",
"n  c #A16B7F",
"m  c #C16B5D",
"M  c #C5416D",
"N  c #C67864",
"B  c #C6766A",
"V  c #9C8A58",
"C  c #A69658",
"Z  c #9D8563",
"A  c #A99A75",
"S  c #B39C75",
"D  c #A79A61",
"F  c #BAA769",
"G  c #BFAB77",
"H  c #BBB573",
"J  c #ACB06D",
"K  c #C9866A",
"L  c #CB946D",
"P  c #CE9072",
"I  c #C3B16C",
"U  c #CCB26D",
"Y  c #C0B86F",
"T  c #C3AC72",
"R  c #C3AC7D",
"E  c #C9AF77",
"W  c #D3A975",
"Q  c #C4B273",
"!  c #CCB375",
"~  c #CCB47A",
"^  c #CBBC7B",
"/  c #C6B977",
"(  c #D1B675",
")  c #D1B77A",
"_  c #D4BC7C",
"`  c #D8BE7C",
"'  c #D4B975",
"]  c #C0A367",
"[  c #CDC27C",
"{  c #DBC27D",
"}  c #D5C27A",
"|  c #E1C87D",
" . c #8E7B84",
".. c #AE7A8F",
"X. c #B3778D",
"o. c #BC6F8D",
"O. c #D15883",
"+. c #DA799B",
"@. c #D2698D",
"#. c #9C898F",
"$. c #B9869B",
"%. c #A69493",
"&. c #BBA588",
"*. c #BDAB98",
"=. c #B6AB93",
"-. c #BB8EA2",
";. c #A39EA9",
":. c #ACA4A8",
">. c #BBB7A9",
",. c #BDBEB6",
"<. c #B9A9AC",
"1. c #C98B8F",
"2. c #C2AB8B",
"3. c #C2A78C",
"4. c #CAB686",
"5. c #D5BD82",
"6. c #DABE83",
"7. c #D4BB8C",
"8. c #D0B781",
"9. c #C5AD98",
"0. c #CBB595",
"q. c #D3BB9B",
"w. c #D8BD9B",
"e. c #D4BC94",
"r. c #DFAD8E",
"t. c #E4B984",
"y. c #C69AAF",
"u. c #C6A7A4",
"i. c #CBB5A7",
"p. c #D9BDA2",
"a. c #D9BCAB",
"s. c #D3B8A8",
"d. c #C5A7B6",
"f. c #CEB3BB",
"g. c #C6BAB8",
"h. c #D9BBB6",
"j. c #D0A9AE",
"k. c #BFC1BA",
"l. c #CDC382",
"z. c #D3C484",
"x. c #DCC483",
"c. c #DCCA82",
"v. c #DCC48C",
"b. c #D7C989",
"n. c #DCC493",
"m. c #DCC29A",
"M. c #DBC893",
"N. c #CFCC96",
"B. c #E1C684",
"V. c #E4CB85",
"C. c #EACE85",
"Z. c #E0C78A",
"A. c #E4CC8B",
"S. c #E9CE8B",
"D. c #EBC688",
"F. c #EBD185",
"G. c #E6D08C",
"H. c #ECD38C",
"J. c #E7D186",
"K. c #E4CB92",
"L. c #EACE92",
"P. c #E5C898",
"I. c #ECD392",
"U. c #EDD49A",
"Y. c #E9D495",
"T. c #F0D89A",
"R. c #F0D288",
"E. c #DCC3A4",
"W. c #DCC8A9",
"Q. c #DAC5B7",
"!. c #CFCDB5",
"~. c #EED8A4",
"^. c #ECD7A8",
"/. c #F2DBA9",
"(. c #E3C5BC",
"). c #E4CABA",
"_. c #E4D9BC",
"`. c #F2DDB5",
"'. c #E9C1AD",
"]. c #F4E1BD",
"[. c #F4E2B3",
"{. c #F1E1B4",
"}. c #CCB4C1",
"|. c #CCBBC4",
" X c #D7BCC7",
".X c #E4BCC1",
"XX c #CCC6C9",
"oX c #DCCDC2",
"OX c #DCC4CC",
"+X c #D8C8CA",
"@X c #D9D1C5",
"#X c #DCC4D2",
"$X c #DDCBD4",
"%X c #D3C9D3",
"&X c #DDD4D9",
"*X c #E4C7CD",
"=X c #E7C9C7",
"-X c #E8D4CC",
";X c #F2D3CF",
":X c #E1C5D2",
">X c #E5CCD4",
",X c #EBCDD1",
"<X c #E4CEDB",
"1X c #EDD3D5",
"2X c #E5D7DB",
"3X c #F4D4D5",
"4X c #F4D6DA",
"5X c #F6D9DC",
"6X c #FADADD",
"7X c #F7DAD6",
"8X c #ECE2CE",
"9X c #EFE4C3",
"0X c #F6E4C5",
"qX c #F4E7CE",
"wX c #E9E5D2",
"eX c #F5EAD6",
"rX c #F5EAD7",
"tX c #FDF0DB",
"yX c #DED4E0",
"uX c #E5DBE4",
"iX c #EDDCE5",
"pX c #EDDFEC",
"aX c #E7D5E2",
"sX c #FBDBE0",
"dX c #F7DCE1",
"fX c #EEE4ED",
"gX c #E7E0E5",
"hX c #F2E4EE",
"jX c #F2E8EF",
"kX c #FCF1E1",
"lX c #EFE5F1",
"zX c #F2E6F1",
"xX c #F4E8F2",
/* pixels */
"                                                          l.                                                                    ",
"                                                          K.b.                                                                  ",
"                                                          A.L.v.                                                                ",
"                                                          b.I.L.M.                                                              ",
"                                                          z.I.I.b.                                                              ",
"                                                          z.I.A.                                                                ",
"                                                          z.K.l.                                                                ",
"                                                          5.v.                                                                  ",
"                                                          H                                                                     ",
"                                                                                                                                ",
"                                                            >.                                                                  ",
"                                              !.-XqX9X].].].].].0X8XeX8X@X                                                      ",
"                                $       !._.9X`./.~.U.I.I.I.Y.Y.I.~./.].qXeX8X                                                  ",
"                            >   > f *._.`.~.U.I.I.I.H.H.I.I.I.H.I.I.I.I.U./.0XeXwX                                              ",
"                            : ; : h '.r.6.I.I.I.I.I.H.I.I.H.H.I.I.I.H.H.H.H.I.~.0XeXwX          ! v.v.                          ",
"                            : h 0 0 h < L I.H.H.I.I.H.H.H.H.H.I.I.I.H.H.H.H.H.I.U.`.eXwX    Q v.L.H.S.A.                        ",
"                        - : 0 1.K 0 0 h W H.H.H.H.H.H.H.H.H.H.H.H.H.H.H.H.H.I.H.H.I.~.qXrX=.4.K.I.H.H.H.b.                      ",
"                        : 0 B L.t.N m K B.H.H.H.H.H.H.H.H.H.I.I.H.I.I.H.H.H.I.I.I.I.I.~.qXrX0.~ x.I.I.H.A.                      ",
"                        - 0 g K K < < h t.H.H.H.I.H.H.H.I.I.) S.H.I.I.I.H.I.I.H.U.I.I.I.~.eXeXq.5.5.A.H.K.4.                    ",
"                        ; , , 0 g < B L 6.H.H.H.~.T.H.H.I.I.4.v.H.H.A.x.I.I.H.H././.I.I.I./.tX8Xn.Z.5.) x./                     ",
"                        j N g , g < h W B.H.H.I.[.T.H.H.I.Y.a.w.H.H.H.) H.T.I.I.T.].T.H.H.I.`.kX_.M.I.A.x.G                     ",
"                        P.D.m < N j K ! G.H.H.I./.I.H.H.I.K.h.).A.I.I.5.A.T.T.H.H./.T.H.A.H.U.0XkXW.L.I.H.A.                    ",
"                      N.I.S.W W D.D.D.x.H.H.H.H.I.H.x.H.H.n.(.;Xn.H.H._ _ I.I.A.H.H.H.H.x.I.I.~.tX8Xv.H.H.S.                    ",
"                      M.H.S.` S.R.R.S.V.H.H.H.H.H.H.~ H.H.P.3XsXp.G.H.5.F I.H.x.x.H.H.H._ H.H.I.W.rXW.S.H.G.                    ",
"                      Z.F.A.) H.H.H.H.H.H.H.H.H.H.v.G H.I.p.7XsX(.Z.H.v.S K.H.x.T H.H.H.( A.H.I.R Q.8Xv.H.H.[                   ",
"                      V.F.B.' H.H.H.H.H.H.` V.H.I.m.e.I.L.a.6X6X;Xm.H.A.9.n.I.S.R A.H.H._ Z.H.H.x.0.qXM.H.S.l.                  ",
"                      V.H.x.{ H.H.H.H.H.H.T A.H.K.p.W.I.P.=XsX6X7Xw.I.A.s.m.S.H.e.v.H.H.x.V.H.H.V.7._.^.V.H.z.                  ",
"                      V.H.{ x.H.H.H.H.H.x.T H.H.m.=XW.S.w.;X6X6X,XW.K.K.h.).v.I.q.w.S.H.Z.B.H.H.x.5.E.W.V.H.b.                  ",
"                      V.F.B.V.H.H.H.H.S.R E A.5.9.*X9.) a.6X6X6X4XQ.R 4.u.OX3.~ &.s.8.H.Z.x.H.H.x._ K.0.x.H.b.                  ",
"                      V.F.H.H.H.H.F.{ R Z T ) &.h.1XE.m.=XsX6X6X6X,X7.7.s.,Xa.4.9.=Xe.H.Z.x.H.H.x.{ H.G x.H.b.                  ",
"                      | F.F.H.H.H.H.H.n.2.G.n.Q.6X7Xw.p.4X6X6X6X6X7Xm.m.,XsX6Xp.a.4X0.A.x.V.H.H.c.x.H.~ { H.z.                  ",
"                      } H.B.H.H.F.H.H.4.7.K.a.7X6X3X9.(.sX6X6X6X6X7XE.p.4X6X6X=Xs.5X0.V.' V.H.x.6.B.H.A.C.S.z.                  ",
"                      ^ J.{ S.H.H.H.7.q.v.p.3X5X6X,X*.3X6X6XsXsX6X6Xs.h.sX6X6X5X,X5Xw.A.' H.H.6.~ B.H.H.F.S.l.                  ",
"                      Y V.! S.H.H.A.&.9.0.1XdX5X5X3X*XsX6XsXsXsXsXsX,X4XsX5X6X5X6X6Xw.x.{ H.H.5.) H.H.H.F.S.^                   ",
"                        x.Q C.H.H.S.9.<. X%.b =  . X>X4XsXsXsXsXsX1XOX#.= = b }.>X,Xw.A.H.H.H.T ) H.H.H.F.S.~                   ",
"                        ^ T S.H.H.Z.9.<XaX% . . @ %XiX<XsX6XsXsX4X$X%X# . . o :.hX$Xw.G.H.H.H.T _ H.F.F.F.C.!                   ",
"                        A S V.F.H.Z.*.pX&X# . . @ XXiX<XsX6XsXsX4XaX%X@ X X o ;.zXOXp.A.H.H.H.T ` H.F.F.F.V.H                   ",
"                        Q.2.C.F.H.A.i.#X+X* O + & }.:X4XsX6X6XsXsX>X|.& + + # <.OX,XE.A.H.H.H.E { R.H.F.F.V.                    ",
"                        oX2.V.F.H.Z.a.5X,XOXf.f. X1X6XsXsX6X6XsXsXsX1X Xf.f. X>X4X6XE.A.H.F.H.! x.F.F.F.C.A.                    ",
"                        oX3.A.H.H.Z.Q.6X6X6X6X6X6X6X6XsXsXsX6XsXsX6X6XsXsXsXsX6X6X6XE.S.F.F.H.) B.H.F.F.C.A.                    ",
"                        !.&.V.H.H.A.(.6X6X6X6X6X6X6XsXsXsXsXsXsX6X6X6X6X6X6X6X6X6X6XE.S.F.H.H.' B.F.F.F.F.V.                    ",
"                          S V.H.F.A.(.6X6X6X6X6X6X6X6X6X6X6XsX6X6X6X6X6X6X6X6X6X6X6XE.S.F.F.H.' V.H.F.F.F.B.                    ",
"                          D V.F.F.A.(.6X6X6X6X6X6X6X6X6X6X6X6X6X6X6X6X6X6X6X6X6X6X7Xq.S.H.F.H.` V.F.F.F.C.V.                    ",
"                            V.F.H.Z.h.6X6X6X6X6X6X6X6XsXsX6X6X6X6X6X6X6X6X6X6X6X6X;X&.S.H.F.F.` C.F.F.F.C.V.                    ",
"                            B.C.C.B.&.1X5X6X6X6X6X6X6XsX3X.Xh.=X5X6X6X6X6X6X5X6X4XoXF S.F.F.F.` C.F.F.F.C.V.                    ",
"                            V.F.F.c.    -X4X5X6X6X6X6X6Xh.j..Xj.,X6X6X6X5X5X5X4X-X  G S.F.F.F.` C.F.F.F.F.V.                    ",
"                            V.C.C.c.      oX1X5X6X6X6X6X4X3X6X7X6X6X6X5X4X4X-X      Q C.F.F.F.` C.F.F.F.J.Z.                    ",
"                            V.C.C.x.          oX1X5X6X6X6X6X6X6X6X6X5X4X-X          I C.F.F.C.' C.F.F.F.F.B.                    ",
"                            B.C.C.c.              oX1X6X6X6X6X6X6X1X-X              I F.C.| C.! C.F.F.F.F.B.                    ",
"                            B.x.| c.                %.,X6X6X6X5X,X                  I F.V.( B.U C.F.F.F.F.c.                    ",
"                            | ) ( V.              ,.g.*X6X6X6X6X1X<.                I F.V.] B.U S.F.F.F.F.c.                    ",
"                            { F F C./           ,.2X|.*X6X6X6X6X1X$XuX@X            ( C.x.C { U H.F.F.F.C.c.                    ",
"                            }   F V./           2XjX$X X4X6X6X6X*X}.pXfX+X          { C._ C { ' F.F.F.F.F.c.                    ",
"                            ^     x.^         XXzXzXlX|.d.4X6X6X XXXlXzX2X          B.V.Y   ` { F.F.F.F.F.c.                    ",
"                            J     [ z.      :.uXzXzX$X%X$X*X6X1X#X Xd.zXzXXX        B.x.    T ` F.F.F.F.C.c.                    ",
"                                    8.&.XX&X%XpXzXiX..}.hX X4X:X Xo.x #XzX&X+X>.  F A.Q     V ! F.F.F.C.F.c.                    ",
"                                  g.9.*.iXzX&X<X:X..8 k d.f. Xf.X.8 8 n }.#XpXpX+X4.4.        _ F.J.F.C.{ c.                    ",
"                            k.&XgXfXiXg.aXhX}.n d 2 3 1 7 k v l 2 1 1 1 7 l -.$X+Xi.2X2XXX    ^ H.H.F.C.U x.                    ",
"                        k.&XfXjXfXzXzXhX XX.8 4 6 3 e u r r y r i y e 5 3 6 2 k .. XhXjXjXfX&Xi.v.H.F.C.U _                     ",
"                      &XfXzXzXzXzXzX<X$.d 2 4 4 3 q a a y e e t a a a a r 6 3 6 2 d $.uXzXzXzXhXQ.v.F.C.( _                     ",
"                    XXzXzXfXzXlXzX:Xx 4 6 4 4 3 q a a a u 8 8 y a a a a a i z 4 4 6 7 d.zXjXzXzXiXe.F.F.` ^                     ",
"                    uXzXfXzXzXzXzX$.4 6 4 4 3 q a a p p r z k r a p u u a s @.c 8 4 8 -.hXzXzXzXzXQ.V.F.{ /                     ",
"                  ,.fXjXzXzXzXzXhX1.5 5 5 4 e p a a p y q z v q p p a u u u O.+.@.z x y.hXzXzXzXxX-Xx.F.{ T                     ",
"                  XXzXzXzXzXzXzXfX$.8 5 8 c s p a p p t w z x q y p a p p p M @.+.+.+.y.zXzXjXzXxXiXn.F.| F                     "
};
