/* XPM */
static char *_484cf0d328f4dd2cfbf48c1e0f49086f7NwZTstXPnhjFo9[] = {
/* columns rows colors chars-per-pixel */
"64 64 232 2 ",
"   c None",
".  c #321014",
"X  c #601A1E",
"o  c #561B25",
"O  c #572934",
"+  c #4A2E2A",
"@  c #6F343D",
"#  c #4D1819",
"$  c #773A48",
"%  c #67444C",
"&  c #645456",
"*  c #6D5B59",
"=  c #715350",
"-  c #736D53",
";  c #6E5C64",
":  c #78666A",
">  c #7E6C73",
",  c #7D7176",
"<  c #5A4946",
"1  c #87343C",
"2  c #892C4A",
"3  c #932446",
"4  c #952649",
"5  c #932A4B",
"6  c #9B294B",
"7  c #952747",
"8  c #8D3552",
"9  c #983958",
"0  c #8B354C",
"q  c #AB2D55",
"w  c #A52E54",
"e  c #A43256",
"r  c #AC3359",
"t  c #A53859",
"y  c #B4345D",
"u  c #BA365E",
"i  c #B12F59",
"p  c #BC3661",
"a  c #BE3962",
"s  c #C13762",
"d  c #C13963",
"f  c #C43E69",
"g  c #88525B",
"h  c #8F4858",
"j  c #906F4F",
"k  c #974461",
"l  c #8D5A68",
"z  c #995B71",
"x  c #B55674",
"c  c #AC516B",
"v  c #987560",
"b  c #8B6D6F",
"n  c #BB6466",
"m  c #A26777",
"M  c #AC6E7D",
"N  c #B7535A",
"B  c #C94B72",
"V  c #CC547C",
"C  c #C6476F",
"Z  c #C76D6D",
"A  c #7C806B",
"S  c #96914A",
"D  c #A3854E",
"F  c #A98755",
"G  c #B48A59",
"H  c #B5985D",
"J  c #ABA55E",
"K  c #949470",
"L  c #BA9866",
"P  c #B89D78",
"I  c #AA8C6C",
"U  c #ACA763",
"Y  c #B8A76B",
"T  c #BBB56C",
"R  c #BBA574",
"E  c #B9B777",
"W  c #C69B66",
"Q  c #CBAC6D",
"!  c #C6A469",
"~  c #C6AA74",
"^  c #D2AD71",
"/  c #C5B474",
"(  c #CBB275",
")  c #CDBB76",
"_  c #CAB87A",
"`  c #D2B575",
"'  c #D3BB76",
"]  c #D4BC7C",
"[  c #DABE7D",
"{  c #D6B77A",
"}  c #CEB66F",
"|  c #D6C47D",
" . c #DAC27D",
".. c #D8CA7E",
"X. c #CCC879",
"o. c #E2C77E",
"O. c #9A7684",
"+. c #B27389",
"@. c #C76180",
"#. c #DB789A",
"$. c #D47091",
"%. c #E17A9A",
"&. c #96888D",
"*. c #A69185",
"=. c #BC9B84",
"-. c #B6899A",
";. c #AC9296",
":. c #BDA588",
">. c #BAA697",
",. c #AFAB97",
"<. c #BC8DA2",
"1. c #B69CA0",
"2. c #B8A5A8",
"3. c #B9ABB2",
"4. c #B5B3AD",
"5. c #C99897",
"6. c #C68D91",
"7. c #C1AA83",
"8. c #CAAD8B",
"9. c #C8B485",
"0. c #D4BC82",
"q. c #D9BE81",
"w. c #D5BD8C",
"e. c #C6AD99",
"r. c #CAB398",
"t. c #D4B99B",
"y. c #D7BC96",
"u. c #D0A09D",
"i. c #C59BA6",
"p. c #C99EB0",
"a. c #C6A9A7",
"s. c #DAAAA8",
"d. c #CAB2A7",
"f. c #DABFA9",
"g. c #D7BAA6",
"h. c #C7A9B5",
"j. c #D6ADB7",
"k. c #CAB8B8",
"l. c #D7B9B8",
"z. c #E1ADAA",
"x. c #E5B8B6",
"c. c #E8B9AC",
"v. c #BFC4BB",
"b. c #CEC386",
"n. c #D4C283",
"m. c #DBC383",
"M. c #DCC983",
"N. c #DCC48B",
"B. c #DDC98D",
"V. c #D8D188",
"C. c #DDC292",
"Z. c #DBC399",
"A. c #E2C684",
"S. c #E4CC85",
"D. c #EACE85",
"F. c #E1C78A",
"G. c #E4CC8B",
"H. c #E9CE8A",
"J. c #EAD186",
"K. c #ECD38C",
"L. c #E4CC92",
"P. c #E4CB95",
"I. c #E6D293",
"U. c #EDD491",
"Y. c #ECD59A",
"T. c #E9D69B",
"R. c #F2DA9C",
"E. c #F1D795",
"W. c #DAC4A6",
"Q. c #C7C8B6",
"!. c #DDC3B6",
"~. c #DBC5B9",
"^. c #CFD2B7",
"/. c #D8D5BB",
"(. c #D2D1A7",
"). c #EDD9A5",
"_. c #ECDBAB",
"`. c #E9D6A5",
"'. c #F2DBA5",
"]. c #F2DCAA",
"[. c #E4C6B8",
"{. c #E7DCB7",
"}. c #F2DEB3",
"|. c #D7E0BE",
" X c #EDE2B8",
".X c #F3E1BC",
"XX c #F4E1B1",
"oX c #CBBBC4",
"OX c #D7BCC5",
"+X c #E6BEC1",
"@X c #D7C5C8",
"#X c #DBD7C6",
"$X c #D9CBD6",
"%X c #DBD3D8",
"&X c #CDCCC7",
"*X c #E3C4C4",
"=X c #EBCCCC",
"-X c #E8C9C7",
";X c #F1CACB",
":X c #E7D6C9",
">X c #F0D0CB",
",X c #EBCED2",
"<X c #E4CBDA",
"1X c #ECD2D2",
"2X c #E5D9DA",
"3X c #F3D4D4",
"4X c #F4DAD6",
"5X c #F3D6D9",
"6X c #F9D7DB",
"7X c #F7D9DC",
"8X c #FADADD",
"9X c #F8D8D7",
"0X c #DFE3C2",
"qX c #EBE6C7",
"wX c #F3E4C3",
"eX c #F6E9CC",
"rX c #F9ECD2",
"tX c #F4EAD6",
"yX c #EFE6D5",
"uX c #DED2E1",
"iX c #E9DBE4",
"pX c #ECDEEA",
"aX c #E6DAE5",
"sX c #F5DBE3",
"dX c #FBDAE1",
"fX c #F0DFEA",
"gX c #EDE1EB",
"hX c #EFE2E5",
"jX c #F2E4EE",
"kX c #F6E1E5",
"lX c #F3E5F2",
"zX c #F4E8F4",
/* pixels */
"                                                                                                                                ",
"                                                                                                                                ",
"                                                            E                                                                   ",
"                                                          U N.                                                                  ",
"                                                          / L.9.                                                                ",
"                                                          ) G.N.                                                                ",
"                                                          n.B.9.                                                                ",
"                                                          b.                                                                    ",
"                                                                                                                                ",
"                                                                                                                                ",
"                                                  /.:X:X:X:X2X2X                                                                ",
"                                          ^.qXyXtXrXrXrXrXrXrXrXrXtXyX#X                                                        ",
"                                      /.qXwX.X].).`.Y.Y.Y.Y.Y.Y.'.]..XrXyX:X                                                    ",
"                                    qXwX'.Y.Y.Y.U.U.U.U.U.U.K.U.U.U.U.Y.}.eXtX                                                  ",
"                                ^.wX}.Y.U.U.U.U.U.U.K.K.K.K.K.K.K.K.K.K.U.Y..XtX                #X                              ",
"                              #XeX).U.K.K.K.K.K.K.K.K.K.K.K.K.K.K.K.K.K.K.K.Y.].eXqX      (.{.wXwXwX                            ",
"                            /.eX).U.U.U.U.K.K.K.K.K.K.K.K.K.U.K.H.K.U.K.K.K.U.U.).wX    {.}.).Y.Y.). X                          ",
"                          ^.eX).K.K.U.U.K.K.U.K.G.K.U.K.K.K.U.K. .U.U.K.K.K.K.K.U.R.{.~.).U.m.0.F.U.{.                          ",
"                          qX`.B.U.K.U.U.m.K.U.K. .K.U.K.' J.K.K.[ S.U.G.G.K.U.K.K.U.).W.9.q.M.G.U.U._.0X                        ",
"                        Q..X0.G.A.U.E.K.' Y.'.G.( K.U.L.P G.U.E.m.M.U.S.[ U.R.Y.K.E.R._.Z.9.S.U.U.U.).qX                        ",
"                        {.P.m.A.] U.R.A.[ '.].0.R U.U.C.r.C.U.E.S.] U.K.] L.].].G.G.R.Y.`.7.m.U.K.K.Y.qX                        ",
"                        {.] S.] G.U.U.q.S.R.Y.7.9.U.K.Z.-Xt.L.U.G.Y J.K.m.N.Y.R.K.] Y.U.).8.n.K.K.U.U.wX                        ",
"                      (.`.] H.' K.K.K.` H.K.L.r.C.K.K.y.9X[.G.K.L.L S.K.G.m.U.K.U.m.G.K.T.W.m.U.K.K.U..X                        ",
"                      (.N.q.F. .K.K.H.[ U.U.Z.!.P.U.L.f.8X>Xw.U.U.~ N.U.H.( J.K.U.G.[ K.I.`.B.U.K.K.U. X|.                      ",
"                      P.] S.q. .K.K.G.q.G.n.d.~.w.Y.P.[.dX6XW.L.N.:.7.N.G.R G.K.U.H.m.G.( Y.N.K.K.U.U. XqX                      ",
"                      F.] G.q.S.K.K.0.~ ] 9.d.a.9.U.y.=XdXdXf.F.w.>.e.q.] I ~ K.U.H.] G.Y G.0.H.U.].Y._.qX                      ",
"                      F.q.G.0.G.K.A.L _ Y.t.-Xl._ U.W.6X8XdX[.N.N.>.e.m.U.:.7.M.K.G.] K.( m._ G.U.XXR.).qX                      ",
"                      G.q.H.] S.H.m.~ m.P.[.dX>XC.P.[.dX8XdX>Xw.L.~.>XN.I.t.t.G.K.G.[ K.] ' / S.U.'.R.Y.qX                      ",
"                      G.] D.] S.K.H.8.B.y.-X,X-XC.Z.>XdX8XdX3Xy.P.~.3Xr.Z.f.W.F.K.G.] U.n.) / M.K.U.K.Y.qX                      ",
"                      M.m.D.[ M.K.C.g.y.e.l.@Xl.7.g.6XdXdXdX9Xy.8.d.,X>.:.!.>XB.K.m.] U.m.] / G.K.J.J.Y.qX                      ",
"                      | H.J.[ [ J.y.!.*.b : ; * - l.dXdXdXdX8Xd.b * ; & * k.3X8.K. .S.K.M.n.( G.J.J.J.Y.wX                      ",
"                      | D.J.S.] G.f.a.< : ; & : & k.dX8X8X8XdX1.& > & : & : OX=.N.` H.K.m.0.) K.J.J.J.I..X                      ",
"                      X.` H.H.( w.a.* &.&.O $ l 2.,X8X8X7X7X8XOX2.% @ g ;.&.> I ~ ( J.H.m.~ ( K.J.J.J.I. X                      ",
"                        Y H.J.m.P : , gXh.O O @ &.dX8X8X8X7X8XsX$X% O $ b <X> j F ( K.G.] m.G.K.J.J.J.I. X                      ",
"                        Y D.J.S.R * 3.aXb o . o l 8X8X8X8X8X8XsX;.O . o % iX;.= L [ K.D.( H.J.J.J.J.J.K. X                      ",
"                        J D.J.K.B.*.oX<Xh 1 X 0 M 8X8X8X8X8X8X7Xm @ # 1 g iX2.v W A.K.D.Q H.K.J.K.J.J.K._.                      ",
"                        J S.J.K.F.!.sXsX+.n Z n l.8X8X8X8X8X8X8X6.N n N i.kX1X6.! H.J.S.! S.K.K.J.J.J.J._.                      ",
"                        U S.D.H.F.!.dXsX+Xu.x.5.>X8X8X8X8X8X8X8X+X6.c.6.,XkX3X=.^ H.J.A.L { H.K.J.J.D.J.`.                      ",
"                          S.D.J.B.d.sXdX8X3X=X3X8X8X8X8X5X8X8X8X8X3X=X1X7X7X1XI { K.K.m.G ` D.J.J.D.D.J.T.                      ",
"                          S.D.D.F.>.5XdX8X8X8X8X8X8X8X8X8X8X8X8X8X8X8X8X8X8X-XI A.K.K.] F ` D.J.J.J.D.J.T.                      ",
"                          S.J.J.G.e.,XdX8X8X8X8X8X8X8X8X8X8X8X8X8X8X8X8X8X8Xl.I H.J.K.' D Q A.J.J.J.D.J.I.                      ",
"                          S.J.J.G.r.l.dX8XdX8X8X8X8X8X8X8X8X8X8X8X8X8X8X9X9Xd.P H.J.K.' F !  .J.J.J.J.J.B.                      ",
"                          S.J.J.G.R >.5X8XdX8X8X8X8X8X8X8X8X8X8X8X8X8X8X8X3X,.~ D.D.H.| G ! ' J.J.J.J.J.G.                      ",
"                          D.D.J.G.    #X7X6X8X8X8X8X-X*X9X*X-X8X8X8X9X9X4X:X  / H.J.D.| F ! ' J.J.J.D.D.M.                      ",
"                          S.D.J.D.T     1X7X7X7X8X8X8X3X9X3X8X8X8X8X9X9X1X    / D.D.D...D ! ' J.J.J.D.D.M.                      ",
"                          S.D.D.D._       :X5X7X8X8X8X8X8X8X8X8X8X8X4X:X      } D.J.D...S W ` J.J.J.D.D.n.                      ",
"                          A.D.D.D._           :X9X8X8X8X8X8X8X8X4X:X          ) D.D.D...  W Q S.J.J.D.D.n.                      ",
"                          A.D.D.D./             *.d.3X8X8XdX9X*X              ) D.D.S...  H ! S.J.J.D.D.n.                      ",
"                          o.o.D.D.)             + = ;.=X=X+Xj.;.              ' J.[ ` ..  H ! ..J.J.D.D.]                       ",
"                          M.Q ` H.b.          Q.2.a.s.s.s.5.s.i.3.#X          [ J.! Y V.  G Q  .J.J.D.D.)                       ",
"                          m.Y Y J.n.        4.%Xl.x.s.z.z.z.x.l.oX2X          | D.Y ~ X.  G Q  .J.J.D.S.)                       ",
"                          ' E J S.n.        %XaX3.*Xx.s.z.x.3Xk.3.aX#X      S M.G.  /     G ! } J.J.J.D.                        ",
"                          / U   ..M.      ,.2XjX$X2.-X;X+X3XOX3.2XlX2X      U S.|   Y     F W Q D.J.D.D.                        ",
"                          T     ) S.    @XoXpXpX@XoXOX8X6X5XOXh.@XzXjXoX4.  Y G.T   J     F W ` S.J.J.D.                        ",
"                          U     I N.>.2XpXOX<Xi.O.<X@X5X8X,Xh.z +.j.OXOXiX@X9.w.    -     v W ^ M.J.J.S.                        ",
"                            A v.~.r.e.OX<.z k 2 2 l h.i.j.-.h 2 5 5 8 k +.i.P Q.%Xk.K     j W Q [ J.D.S.                        ",
"                          k.%XjXjXj.g 8 5 3 4 w r 5 0 9 t 2 6 6 3 3 4 4 5 2 h h.pXjXiX%X4.v L Q ' J.D.S.                        ",
"                    &X%XpXlXjX<X-.k 3 4 4 7 y d f d w y p w a p y w 4 3 3 4 5 8 +.<XlXlXgX@X=.~ ' J.D.S.                        ",
"                  v.gXlXjXlX<Xm 2 6 4 3 6 y d d d d y e r y d d d a u r t 9 7 4 8 -.jXlXlXzX2Xe./ S.J.S.                        ",
"                  2XlXjXjXlXi.8 5 7 6 e p s s s s a y k k y d d d a a a V $.@.x c <.gXlXlXlXzX:XR o.J.S.                        ",
"                %XaXaXlXjXlXp.k 9 c @.C s s s s a y r l c r d d d d d d B #.#.#.#.h.lXzXlXlXgXhXr. .J.S.                        ",
"                iXaX%XlXlXzXOX$.#.#.$.f s a s s i y e l x q s d d d a d f $.%.#.6.<XlXzXzXpX$XlXd.n.J.S.                        ",
"              Q.gXgX$XjXlXzX<X+.$.#.V d s s a p q a e z x w u d d d d d d B $.#.+.aXlXlXzXuXuXzX:XN.J.S.                        ",
"              &XjXlX%XgXlXjXfXO.c V f d a a a a u d e m +.q u d d d d d d d C x <.lXlXlXzX%XpXzX2Xw.J.S.U                       "
};
