/* XPM */
static char *_e158b24cd864042a23f1ea26a121f3d[] = {
/* columns rows colors chars-per-pixel */
"64 64 236 2 ",
"   c None",
".  c #5A2737",
"X  c #531C2E",
"o  c #313346",
"O  c #353D65",
"+  c #683746",
"@  c #33446B",
"#  c #374777",
"$  c #3C616D",
"%  c #454457",
"&  c #5F5C55",
"*  c #774855",
"=  c #695F59",
"-  c #6E6853",
";  c #454866",
":  c #5D5C66",
">  c #4A5579",
",  c #565C79",
"<  c #484F74",
"1  c #7D5362",
"2  c #5D6575",
"3  c #696965",
"4  c #797468",
"5  c #686970",
"6  c #957D3D",
"7  c #8B7138",
"8  c #993A47",
"9  c #893846",
"0  c #904751",
"q  c #8D7945",
"w  c #957D43",
"e  c #8B7A56",
"r  c #A85D65",
"t  c #8C7276",
"y  c #B16569",
"u  c #B16871",
"i  c #B7747A",
"p  c #AB6870",
"a  c #93505E",
"s  c #C0757A",
"d  c #9A803D",
"f  c #998348",
"g  c #9B8657",
"h  c #A68C48",
"j  c #AA914B",
"k  c #A9945A",
"l  c #B79C55",
"z  c #A98F54",
"x  c #BEA355",
"c  c #BCA35B",
"v  c #B7A158",
"b  c #9A8B60",
"n  c #8F8668",
"m  c #AA9664",
"M  c #B39C63",
"N  c #AD9771",
"B  c #B9A369",
"V  c #BBA676",
"C  c #C3A456",
"Z  c #C5AB5B",
"A  c #CAAD5C",
"S  c #C2A75A",
"D  c #CDB15D",
"F  c #D1B15D",
"G  c #C6AD62",
"H  c #C8AD68",
"J  c #CAB263",
"K  c #C1AA78",
"L  c #CAB27B",
"P  c #3C4D81",
"I  c #3F5186",
"U  c #4B5C85",
"Y  c #45568A",
"T  c #4B5C8C",
"R  c #465887",
"E  c #535E85",
"W  c #505D8B",
"Q  c #4B5E93",
"!  c #4E5F98",
"~  c #505F93",
"^  c #4D648C",
"/  c #4A6686",
"(  c #51638C",
")  c #586687",
"_  c #4D6295",
"`  c #4F659B",
"'  c #4D6998",
"]  c #516395",
"[  c #52669B",
"{  c #53689D",
"}  c #5B6A9C",
"|  c #576995",
" . c #5F719C",
".. c #65698B",
"X. c #676D95",
"o. c #67759B",
"O. c #737A9D",
"+. c #777898",
"@. c #777787",
"#. c #5367A1",
"$. c #5569A3",
"%. c #596AA5",
"&. c #5C6EA9",
"*. c #5868A5",
"=. c #5D71A9",
"-. c #5D70A5",
";. c #6372A4",
":. c #6375AC",
">. c #6B79A8",
",. c #757CA2",
"<. c #7277A0",
"1. c #6A7BB1",
"2. c #6774A7",
"3. c #927A87",
"4. c #B97A84",
"5. c #C17F82",
"6. c #6B8597",
"7. c #7886A8",
"8. c #7C8BBA",
"9. c #7686B7",
"0. c #7E93B2",
"q. c #7E97AE",
"w. c #7E8CC0",
"e. c #958F91",
"r. c #BC8586",
"t. c #AA9A8B",
"y. c #AB8B92",
"u. c #B4A58C",
"i. c #8888A7",
"p. c #9693AA",
"a. c #8796B9",
"s. c #9899B4",
"d. c #8B91AF",
"f. c #A597A5",
"g. c #A19DB8",
"h. c #B39DA6",
"j. c #8DA1B9",
"k. c #94A6BB",
"l. c #AAA4BB",
"z. c #B7ABB6",
"x. c #BFB1B9",
"c. c #B8ABA6",
"v. c #C38A88",
"b. c #CA9898",
"n. c #D09C97",
"m. c #C59191",
"M. c #C2AD84",
"N. c #CBB586",
"B. c #D1B98D",
"V. c #C8A89A",
"C. c #D3A39D",
"Z. c #D0B795",
"A. c #CAB299",
"S. c #CA9BA2",
"D. c #D8A9A6",
"F. c #DBB3AA",
"G. c #D8BAA9",
"H. c #C6B7B9",
"J. c #DBB7B6",
"K. c #CBAEA9",
"L. c #EDADAC",
"P. c #E2A9A9",
"I. c #E2BCB3",
"U. c #E3B3B6",
"Y. c #E1B2AF",
"T. c #D7C497",
"R. c #E2CD9F",
"E. c #DBC5A8",
"W. c #DAC4B6",
"Q. c #CFC0B5",
"!. c #E3CDA8",
"~. c #EAD6AB",
"^. c #E8D4AA",
"/. c #E3C2B5",
"(. c #E5CCBC",
"). c #E8CEBE",
"_. c #E5C7B6",
"`. c #E6D1BF",
"'. c #E9D0BF",
"]. c #EAD4B0",
"[. c #8A98C5",
"{. c #8D98CA",
"}. c #94A4C4",
"|. c #99A8C8",
" X c #9CA6D3",
".X c #8FA1C3",
"XX c #B4ACC2",
"oX c #BAB4C8",
"OX c #C6BBC7",
"+X c #D2BDC6",
"@X c #E1BFC5",
"#X c #CCC4CE",
"$X c #D7C5C8",
"%X c #CDC2D4",
"&X c #D3C6D4",
"*X c #DBCBD4",
"=X c #D7CBD7",
"-X c #DDD5D7",
";X c #DBD6C6",
":X c #E5CDC2",
">X c #E9CEC1",
",X c #E8C8C8",
"<X c #E7D2C1",
"1X c #E9D2C2",
"2X c #EAD4CA",
"3X c #E9D6CE",
"4X c #E4CED4",
"5X c #ECD4D3",
"6X c #EDDBD3",
"7X c #E2D4DD",
"8X c #ECDBDC",
"9X c #E6D8D8",
"0X c #F1DCD6",
"qX c #F3DDDC",
"wX c #F0D1D1",
"eX c #F0CBCE",
"rX c #E6E4D9",
"tX c #F4E1DD",
"yX c #F8E2DE",
"uX c #E6DBE3",
"iX c #EADDE6",
"pX c #EBDFE9",
"aX c #E3D7E0",
"sX c #F3DDE1",
"dX c #ECE1E5",
"fX c #EDE1EA",
"gX c #F5E4E4",
"hX c #F9E4E5",
"jX c #F5ECE6",
"kX c #F1E5ED",
"lX c #FBE4E8",
"zX c #FAE9EA",
"xX c #F9E9E8",
"cX c #FDEEF1",
"vX c #F6F0E8",
"bX c #DED4E0",
/* pixels */
"                                                                                                                                ",
"                                                }.[.a.a.a.8.8.8.8.8.0.a.a.k.                                                    ",
"                                        }.}.[.8.1.:.&.&.*.*.*.*.*.&.&.=.:.1.9.[.[.}.}.                                          ",
"                                  |.|.{.9.:.&.*.*.*.*.*.*.*.*.*.*.*.*.*.*.*.*.*.=.1.9.[.}.k.                                    ",
"                              k.|.{.9.&.*.*.*.*.*.*.*.*.*.*.*.*.*.$.$.*.$.*.*.*.*.*.*.&.1.8.}.|.                                ",
"                            |. X8.;.*.*.*.*.*.*.*.*.*.*.*.*.*.*.*.*.$.*.*.*.*.*.*.*.$.$.*.$.:.[.|.|.                            ",
"                        j. X{.1.[ [ *.*.*.*.*.*.*.*.*.*.*.*.$.$.*.$.*.*.*.*.*.*.*.*.*.*.*.*.*.*.1.[.|.                          ",
"                      k. X{.;._ [ *.*.$.$.$.$.$.$.$.$.$.$.*.$.X.} *.*.*.*.*.*.*.*.*.*.*.*.*.*.*.$.&.w.|.                        ",
"                    k. X{.;.! [ *.*.*.$.$.$.$.$.$.$.$.$.$.$.o.f.} *.*.*.$.$.*.*.$.$.*.*.$.*.$.$.$.$.*.9.|.                      ",
"                  j. X{.;.Q [ $.&.$.$.$.$.$.$.$.$.$.*.*.$.} l.z.} *.$.$.$.$.$.$.$.$.$.$.$.$.$.$._ [ *.$.9.|.                    ",
"                   X{.:._ [ $.:.:.$.$.$.$.$.$.$.&.=.$.$.$.,.9Xx.} *.{ [ $.$.$.$.$.$.$.$.$.$.$.$.[ _ $.$.$.9.|.                  ",
"                |. X1.[ _ $.$.:.&.$.$.$.$.$.$.$.=.=.$.$.} l.zXOX[ *.[ _ { { { $.&.$.$.$.$.$.$.$.{ _ [ { $.$.8.|.                ",
"              j. X8.{ Q [ $.{ $.{ $.$.$.[ #.$.$.$.$.$.$.<.7XlXOX} $.[ _ { { { { :.&.$.$.$.$.$.&.%._ _ { $.$.&.[.k.              ",
"              }.{.} _ _ { { { { { { { { Q [ $.$.$.$.$.{ g.lXlX&X} $.[ R { { [ [ :.&.$.$.$.$.$.:.1.[ ! { { &.$.:.}.              ",
"            j. X>.[ Q { { { { { { { { _ Q [ [ $.$.$.$.;.&XlXlX=X;.{ [ | { $._ _ $.$.{ { $.$.{ $.9.%._ [ { :.&.#.8.k.            ",
"            }.[.[ [ ] { { $.{ { { [ [ Y T Q Q _ [ $.$.d.gXlXlX7X<.{ [ O.$.$._ _ $.{ { { $.{ { { =.$.[ _ [ &.=.[ ;.[.            ",
"            |.;.[ Q [ { { $.{ [ [ { ] T [ [ { [ ` $.} OXxXlXlXiX,.[ [ i.;.[ [ _ $.{ { _ [ { { { $.[ [ Q [ { { [ [ 8.            ",
"          k.a.T [ Q [ [ [ [ [ [ [ [ T T [ [ [ [ [ [ ,.7XlXlXlXhXd._ Q i.O._ [ Q [ [ [ _ _ [ [ { { [ [ _ [ { { { [ >.j.          ",
"          }.,.^ _ _ [ [ [ [ [ [ [ [ ( ] [ [ [ [ [ [ s.hXlXlXlXlXXX{ [ p.l.] Q T [ [ [ ] [ [ { { [ [ { [ _ { { { [ } a.          ",
"          .Xo.] Q ` [ [ [ [ [ [ [ ( ..Q Q T _ [ [ } OXlXlXlXlXlX&X .[ p.=Xo.[ Y _ [ [ ] Q { { [ [ [ { [ Q [ { { [ [ 9.          ",
"          a./ [ ! [ [ [ [ [ [ _ T 2 2 T T U T T _ ,.8XlXlXlXlXlXiX7.[ i.8Xd.[ Q T [ [ [ Q [ { [ [ [ [ [ ! [ { { [ [ >.          ",
"          0.  [ _ [ [ [ [ [ _ T U 3 2 T ( ( ( W U p.hXhXgXgXhXhXlXg.[ +.8XOX} ] W [ [ [ Q ` { [ { [ [ [ Q ] [ [ [ [ -.q.        ",
"          7.  ] Q [ [ [ [ _ T U > - 2 W ( ( T T , t.qXhXhXhXgX3XW.t., , A.W.O.[ ..| [ [ Q _ ` [ { { [ [ _ _ [ [ ` [ } 7.        ",
"        a.6.  ] Q [ [ [ [ T T R 2 4 E ( ^ ( U R 5 B W.lXlXqXW.K A G 4 2 M H n E ..X.[ [ Q _ ` ` [ { { [ _ Q [ [ ` [ [ 7.        ",
"        a.6.  _ T [ [ [ Q U T U 4 t.) U R ^ ^ U 3 Z N.qX0XW.].L x J m : g C B 5 ) i.[ [ Q _ [ ` #.$.$.[ _ Q ` ` [ [ [ >.        ",
"        q.o.  ^ T [ { [ T ^ ^ E 4 e.) R R ^ ^ E n A H :Xu.N.E.B.l A J b g Z C m , f.O.[ [ [ [ [ #.$.$.#.[ _ [ [ [ [ [ o.        ",
"              ^ Q [ { [ T U U E - 4 U T T T ( ) m D H Z.k f B.~.B l D S v D A c t 3.l.} _ _ [ [ #.#.$.$.[ Q [ [ [ [ [ o.        ",
"              / Q [ [ _ R R R , - & T [ [ T R 2 c D G B S 6 m ^.T.j c l D D D Z k 4 x.i.] _ [ [ #.#.$.$.{ T _ [ { [ [ o.        ",
"                T [ [ _ > > , 5 q - , X...: = b A D S x Z j f M.^.V u.B.D D D D x k t.&Xo._ [ [ { $.$.$.[ Y T [ [ [ [  .        ",
"              R Q Y P # 3 b k B v w e c.E.M.h S D D l c Z Z h g G.(.0X(.G D D D C Z M.sXXX[ ` ` { [ [ #.[ T T [ [ [ [ }         ",
"            / T [ Q # O = G C D J j w N ~.~.K h l A K G A D x w V 0XlX0XB.G D D Z Z B.hX&X} ` { { [ [ ` [ T Q _ [ [ [ {         ",
"          ^ ] ~ ] > o o t L A D D x 6 f T.~.^.B f B W.H C A A h w V.5XA.m c D D C Z Z.lXOX{ ` ` [ ` ` ` [ T _ _ [ [ [ [ |       ",
"          [ ] < ; % o o f._.H D D D j 6 B ^.E.T.V K.qXL A C F l w g G.!.M j A D x G E.lXl.[ [ [ [ ` ` [ ` Y [ Q ` [ [ [ ^       ",
"        ^ { ^ % % ; O ; OXhXE.H D A l 7 q V !._.(.tXlXE.J C A A h q M.~.R.M j C S L 5XlXg.[ _ { [ [ [ ` ` I ! _ _ [ [ [ '       ",
"        / [ T > W [ P > *XlXhX(.N.H G h w b E.3XqXhXlX0XN.Z x A l 6 k !.].R.M j G E.hXsXi._ _ { { { { { [ # Q [ Q [ [ [ [ /     ",
"          ' _ ! #.[ Y ..8XhXlXlXqX1XE.G.G.:XqXlXhXlXlXlX1XL Z x l d w B.^.~.^.V A.sXhX7Xo.Q _ [ { { { { { ) T [ _ [ [ [ [ '     ",
"            Q _ [ [ T +.sXhXlXlXlXlXlXlXlXlXhXhXlXlXhXhXhX<XN.G Z h 7 k !.~.!.W.sXlXlXOX} Q [ [ { { { { { s.| [ _ _ { [ [ [ /   ",
"            R _ [ Q > : 4XlXlXlXlXlXlXlXlXlXhXhXlXlXhXhXhXlX0XE.N.V g m E.(.3X8X8XlXgXs.] Q ` { { { { ` | oX,._ Q T [ [ [ [ '   ",
"              > < ; % % z.lXlXlXlXlXlXlXlXlXlXhXlXhXhXhXhXhXlXlXtX6X5X5XqXgXlXqX9XlX-X<.Q _ { { { { [ ` o.&X,.[ Q P _ [ [ [ [   ",
"      rX      % % ; > R ..*XlXlXlXlXlXlXlXlXlXhXhXhXhXhXhXhXhXhXlXlXlXlXlXlXlXlXhXgXg.} ( [ { { [ [ [ [ O.#XX.[ Q # _ [ [ [ ]   ",
"      dXhXjX$X@.E ] { [ Y @.8XlXlXlXlXlXlXlXlXhXlXlXlXlXlXlXhXhXhXhXhXhXlXlXhXgXlX%XX.O.o.[ [ [ { [ { [ i.l.T [ _   ^ [ [ [ ^   ",
"      rX6X2X0XdXOXi.} [ Q #   gXlXlXlXhXlXlXhXhXhXsX5X5X5XqXgXlXhXhXhXhXlXlXlXlX7Xi.O.s.} [ [ [ [ [ [ <.l.X.Y [ ]   ^ [ [ '     ",
"        6X<X<X1X0X8XoX<.[ R     rXgXhXlXlXlXlX0X,XU.D.D.P.Y.5XlXhXhXhXhXlXlXlXgXs.+.OXd.[ [ [ [ ( +.XX*Xi.# Q [ ^   ( [ [ /     ",
"        6X<X<X<X<X2XtXbXs.)         rXgXlXlX0XJ.L.L.L.L.L.L.,XlXhXhXhXhXlXlXhXH.p.*X%XX.[ ] O.s.c.$X&Xe.# # Q ]     ( [ (       ",
"        6X<X<X<X<X<X<X6XgX#X            4XsXqXY.L.L.L.L.L.L.,XlXhXhXhXhXhXlXhX4X8X$Xi.7.s.) ..p.p.+.>   @ # _       ^ ^         ",
"        rX1X<X<X<X<X`.<X2XgXvX          *XH.$XJ.P.L.L.L.L.F.5XlXhXhXlXlXlXgX4X$Xx.z.#XaXfX%X..# # #     # # /       $           ",
"        9X2X<X<X<X<X<X<X<X1XtXjX        dXOXz.c.y.v.D.P.D.@XsXsX8X4X+XK.y.f.z.z.z.-XkX7XpXkX=XX.@     @ @                       ",
"        9X2X<X<X<X<X<X<X<X<X1X0XjX      fX*Xz.z.3.. + 0 * 1 1 * * + . X + f.z.z.#XkXuX7XkXkXkX&X                                ",
"        rX3X<X<X<X<X<X<X<X<X<X<X6XjX  -XfXuXx.z.3.. . + + * * a t t t 3.h.OXOXOX-X-X&XuXuXfXkXfXrX                              ",
"          6X<X<X<X<X<X<X<X<X<X<X<X6XjX-XaX-X#X#XOXH.$X4X8XsXgXlXxXxXxXxXxXxXxXxXjXgXfXgXuX7XpXkXfXrX                            ",
"          6X<X<X<X<X<X<X<X<X<X<X<X<X6XjXxXxXxXxXxXgXtXqX6X6X3X3X2X1X2X2X2X2X2X3X3X6X6XtXxXdXuXkXkXdX                            ",
"        3X6X<X<X<X<X<X<X<X<X<X<X<X`.1XxXcXtX2X1X<X<X<X<X<X<X<X<X<X`.>X<X'.<X<X<X<X<X<X1XtXfXpXkXkXfXrX                          ",
"      8X5X2X1X<X<X<X<X<X<X<X<X<X<X<X<XgXzX6X<X<X<X<X<X<X<X<X<X<X<X<X<X<X1X<X1X<X<X<X`.<XtXfXpXkXkXkXfX                          ",
"      gXwX,X2X<X<X<X<X<X<X<X<X<X<X<X<XgXcX6X<X<X>X<X1X)./.>X>X/.(.F.F.C.I.n.v.F.n.D.<X<XtXfXuXkXkXkXfX8X                        ",
"      hXeXJ.2X<X<X<X<X`.`.`.`.<X<X<X<XtXcX0X<XJ.D.I.F.F.r./.C.v.C.v.n.m.C.i y n.y v.:X<XgXfXuXfXfXfXfXuX                        ",
"      yXeXJ.2X).).>X<X'.'.'.'.'.'.'.<XqXcXtX<XF.b.F.F.F.v.Y.D.F._.I./._.).I.D.F.n.D.:X<XtXpXuXfXfXfXfXfX9X                      ",
"      6XeXD.:X<X).).<X).'.'.'.'.'.'.<XqXcXtX<X(.I.>X<X>X>X).I.J.F.D.C.n.m.v.v.i I.1X>X<XtXuXuXfX7XuXfXfXuX                      ",
"        3XY.$X1X).`.:X).).).).'.'.'.`.6XcXtX`.<X).<X>XI.b.r.m.b.i 4.i r.i r.S.4.v.Y.F.(.hXuXiXuX=XpXfXfXdX;X                    ",
"          F.J.1X(.1X6X<X).:X).).).).`.6XcXyX<X).).F.r.p S.4.6X4X4.S.9X@X4.J.J.4.8 0 i J.hXaXiX7X7XfXpXfXfX-X                    ",
"          V.K.:X).3XqX2X<X>X).).).).(.6XcXyX<X<XI.r b.,X$X4.m.b.p r 4.i 0 u p 9 9 8 r F.lX7XuXuXpXpXpXpXfXuX                    ",
"            V.W.:X2X6X2X`.).).).).).).3XzXgX>XF.v.0 u b.p 4.v.n.D.D.C.D.D.F.b.r.n.C.b.C.4X$X*XaXpXpXpXpXpXuX                    ",
"              K.K.Q.3X2X<X`.).).).).).2XzXgXD.y 8 8 9 0 b.(.).).).).).).).).).).>X(.W.:X5XqXqX4XaXpXfXfXfXuX-X                  ",
"                H.Q.gXtX6X<X).).).).).1XxXgXI.s 8 r m.G.(.(.(.(.(.(.(.(.(.(.(.(.W.W.5XqXqXqXqX8X*XuXfXuXuXuX-X                  ",
"                ;X$X0X^._.2X).).).(.(.:XxXxXI.u m./.(.(.(.(.(.(.(.(.(.(.(.(.(.W.W.0XqXqXqXqXqXqX#X#X*X7XuXuX9X                  "
};
