/* XPM */
static char *e371564a2efd4d0f8f0712124cbc42ba[] = {
/* columns rows colors chars-per-pixel */
"64 64 230 2 ",
"   c None",
".  c #2F313F",
"X  c #4D1A2B",
"o  c #541C2E",
"O  c #571E31",
"+  c #591F32",
"@  c #5A2134",
"#  c #5B2837",
"$  c #65283B",
"%  c #63323C",
"&  c #6F6539",
"*  c #3A3C4C",
"=  c #393E51",
"-  c #2C3759",
";  c #303F69",
":  c #683744",
">  c #5E3640",
",  c #3A4359",
"<  c #394664",
"1  c #3D4A65",
"2  c #34456B",
"3  c #3C4C6C",
"4  c #364567",
"5  c #334574",
"6  c #3A4C74",
"7  c #364A79",
"8  c #3E537D",
"9  c #3E5171",
"0  c #32446F",
"q  c #484B48",
"w  c #444A5A",
"e  c #4D545C",
"r  c #574E4F",
"t  c #6F4D52",
"y  c #6A6956",
"u  c #716C50",
"i  c #454C68",
"p  c #48546A",
"a  c #535B65",
"s  c #534A7A",
"d  c #425374",
"f  c #4C5A75",
"g  c #42557C",
"h  c #46597D",
"j  c #4A5A7A",
"k  c #555A77",
"l  c #4B4678",
"z  c #695776",
"x  c #566278",
"c  c #5A6064",
"v  c #666968",
"b  c #636B76",
"n  c #777571",
"m  c #5F6157",
"M  c #87783E",
"N  c #845A5C",
"B  c #8B7D44",
"V  c #847845",
"C  c #877E53",
"Z  c #877477",
"A  c #8C7371",
"S  c #90686D",
"D  c #96863F",
"F  c #8E8248",
"G  c #938444",
"H  c #998A47",
"J  c #978A57",
"K  c #9A8B55",
"L  c #A18F47",
"P  c #A5944A",
"I  c #AC9A4B",
"U  c #A89647",
"Y  c #A89956",
"T  c #AE9B4E",
"R  c #BAA74E",
"E  c #B8A755",
"W  c #AFA25B",
"Q  c #898469",
"!  c #958C67",
"~  c #9B9269",
"^  c #999272",
"/  c #8D8B76",
"(  c #A59967",
")  c #A49C77",
"_  c #B4A668",
"`  c #AAA47C",
"'  c #ACA274",
"]  c #B5A878",
"[  c #B6AB71",
"{  c #C6B253",
"}  c #C9B559",
"|  c #C2AE50",
" . c #C7B770",
".. c #D3C374",
"X. c #3E5481",
"o. c #3A4F80",
"O. c #574B80",
"+. c #425682",
"@. c #435985",
"#. c #4B5D84",
"$. c #455C8B",
"%. c #495E8C",
"&. c #475F90",
"*. c #675481",
"=. c #7A5883",
"-. c #4E6185",
";. c #4C618D",
":. c #53658B",
">. c #576687",
",. c #4A6394",
"<. c #4B6494",
"1. c #536B9B",
"2. c #566A94",
"3. c #5B719D",
"4. c #656C87",
"5. c #6A7388",
"6. c #747B8C",
"7. c #767888",
"8. c #677495",
"9. c #6F7894",
"0. c #5C73A2",
"q. c #576FA0",
"w. c #667CAA",
"e. c #647AA6",
"r. c #875E86",
"t. c #926F88",
"y. c #A56B88",
"u. c #A67789",
"i. c #A86D91",
"p. c #BB7493",
"a. c #B5748D",
"s. c #C17795",
"d. c #7C829A",
"f. c #798498",
"g. c #6D82AD",
"h. c #7A89AB",
"j. c #768BB5",
"k. c #7C91BB",
"l. c #6D83B1",
"z. c #98898C",
"x. c #878B99",
"c. c #989598",
"v. c #908C91",
"b. c #A58887",
"n. c #A49D9B",
"m. c #A99795",
"M. c #B49891",
"N. c #ABA583",
"B. c #B6AC84",
"V. c #BCB38A",
"C. c #BBB386",
"Z. c #B8A996",
"A. c #B8AF95",
"S. c #838BA5",
"D. c #858EAA",
"F. c #8792A9",
"G. c #969AA5",
"H. c #8D9BBD",
"J. c #8896B7",
"K. c #909BBF",
"L. c #9CA2AB",
"P. c #A6A3A3",
"I. c #ADABAA",
"U. c #AAA7A6",
"Y. c #B4ADAA",
"T. c #B7B2AD",
"R. c #A9AAB2",
"E. c #B4B2B3",
"W. c #BBB6B5",
"Q. c #BDBBBB",
"!. c #B4B4B9",
"~. c #B6AFB0",
"^. c #C89D95",
"/. c #C3BB8E",
"(. c #C0B58B",
"). c #DDA69D",
"_. c #DAA59C",
"`. c #C5BA98",
"'. c #C5A59C",
"]. c #E0A79E",
"[. c #C3ABA3",
"{. c #C8B9A8",
"}. c #C5BBB8",
"|. c #D9BFB7",
" X c #E0AAA0",
".X c #BBC2B4",
"XX c #CAC294",
"oX c #D5CD9C",
"OX c #D5CB96",
"+X c #DDD49B",
"@X c #D5C988",
"#X c #E4D895",
"$X c #D2C6A9",
"%X c #DCD5A3",
"&X c #DFD8A5",
"*X c #C9C2BA",
"=X c #D6C7BA",
"-X c #C8CDAB",
";X c #E6DAB7",
":X c #ECE7BB",
">X c #EFE9B8",
",X c #DFE0BF",
"<X c #869AC2",
"1X c #8A9DC2",
"2X c #909FC1",
"3X c #8EA1C6",
"4X c #91A1C4",
"5X c #92A3C8",
"6X c #C2BFC0",
"7X c #CBC9C6",
"8X c #CDCBC9",
"9X c #C6C3C4",
"0X c #DACCC3",
"qX c #D3CBC8",
"wX c #DBD1C8",
"eX c #D6D4D3",
"rX c #D9D7D5",
"tX c #DAD8D6",
"yX c #DBDAD8",
"uX c #D1CFD0",
"iX c #E4D5CD",
"pX c #E6D8CF",
"aX c #E8D9CF",
"sX c #E8D6CE",
"dX c #E7D9D0",
"fX c #E9D9D0",
"gX c #E7D7D0",
"hX c #E0CFC7",
"jX c #ECE5C0",
"kX c #F1ECC1",
/* pixels */
"                                                                                                           .                    ",
"                        ;X                                                                                                      ",
"                      ;XjX                                                                                                      ",
"                      :XkX;X                  d.S.F.J.H.2X4X5X5X5X5X4X2XH.J.D.S.6.                                              ",
"                        jX            d.S.H.4X5X3X<Xk.j.g.w.w.w.w.w.w.l.j.k.<X1X3XH.J.S.                                        ",
"                        =X        S.H.5X5X<Xk.w.0.1.<.<.<.<.<.<.<.<.<.<.<.<.1.0.w.j.<X5X1XD.                                    ",
"                                H.5X<Xj.e.1.<.<.<.<.<.<.<.<.<.<.<.<.<.<.<.<.<.<.<.<.1.e.j.1XH.D.                                ",
"                            F.4X<Xg.1.<.<.<.<.<.<.<.<.<.<.,.<.<.<.<.<.<.<.<.<.<.<.<.<.<.<.3.j.1XH.9.                            ",
"                        d.K.1Xg.1.<.<.<.<.<.<.<.<.<.<.<.<.,.,.<.<.,.<.<.<.<.<.<.<.<.<.<.<.<.<.0.k.H.S.                          ",
"                      S.1Xk.q.<.,.<.<.<.<.<.<.,.<.<.<.<.,.@.,.,.,.<.<.<.,.<.<.<.<.<.,.<.<.<.<.<.1.g.1XS.                        ",
"                    D.1Xg.1.,.<.<.<.<.<.<.<.<.<.1.,.,.,.,.6 ;.,.<.<.<.,.1.<.,.<.<.<.q.<.,.,.<.<.<.1.e.<Xh.                      ",
"                  D.<Xe.1.1.<.<.<.<.,.<.<.<.,.w.0.,.,.<.;.k ;.,.,.<.<.,.e.1.,.<.<.<.l.1.@.@.<.<.<.w.1.e.H.S.                    ",
"                J.1Xe.<.l.0.,.<.1.<.,.,.,.,.1.j.1.,.,.<.>.t.;.,.,.,.,.,.1.1.,.,.,.,.w.0.&.8 ,.,.,.0.e.<.e.J.                    ",
"              D.3Xw.,.1.j.1.,.<.1.,.<.@.$.,.1.w.<.<.<.,.x.M.-.<.,.,.,.,.,.,.,.,.,.,.1.1.,.@.@.,.,.<.1.<.<.w.J.            kX    ",
"              1Xl.<.,.1.e.,.,.,.,.,.,.8 %.,.<.<.,.<.<.:.W.{.>.<.,.,.,.,.,.,.,.,.,.,.,.,.,.&.8 ,.,.,.,.,.,.<.l.S.          kX>X  ",
"            J.k.1.<.,.,.,.,.,.,.,.,.&.8 ,.,.,.<.<.<.<.8.qX0X7.,.,.,.,.,.,.,.,.,.,.,.,.,.,.,.X.%.,.,.,.,.,.@.1.k.          kX:X  ",
"          S.1X0.,.<.,.,.,.,.,.,.,.,.$.+.,.,.,.<.,.<.,.S.gXsXv.;.<.,.,.,.,.,.,.,.,.,.,.,.,.,.@.+.,.,.,.,.,.X.$.e.h.              ",
"          H.g.<.<.,.,.,.,.,.,.,.,.<.@.@.,.,.,.,.<.<.:.E.fXfXE.:.<.<.,.,.,.,.,.,.,.,.,.,.,.,.&.8 ,.,.,.,.,.%.X.1.j.              ",
"        D.<X1.<.<.,.,.,.,.,.,.,.,.,.+.%.<.,.,.,.<.<.8.7XfXfX0X5.<.<.<.,.%.,.,.,.,.,.,.,.,.,.,.X.%.<.,.,.,.,.8 %.w.D.            ",
"        H.g.<.<.,.,.,.,.,.,.,.,.,.,.8 ,.,.,.,.,.<.<.d.iXdXdXsXx.<.<.<.%.6 ,.,.%.%.@.@.,.,.,.,.@.@.<.,.,.,.,.@.@.1.j.            ",
"      D.<X1.<.<.,.,.<.@.%.,.,.,.,.@.4 @.@.@.,.,.<.,.G.fXfXfXfX~.:.<.<.%., 2 2 8 +.$.X.,.,.,.,.$.+.,.,.,.,.,.&.8 <.l.            ",
"      J.l.<.<.<.,.,.,.X.%.,.,.,.,.8 4 g 6 2 2 6 $.:.W.fXfXfXfX0X8.<.$.2 p x %.,.,.,.7 @.,.,.,.,.8 ,.,.,.,.,.,.8 %.e.h.          ",
"      H.:.,.<.,.,.,.2.2.,.,.,.,.,.h #.,.,.,.%.8 6 >.qXfXfXfXfXdXG.;.6 +.6.c.;.<.<.,.#.j ,.,.,.,.8 ,.,.,.<.,.,.@.@.1.h.          ",
"    d.k.+.,.,.,.,.,.8.F.<.<.,.,.%.d d @.@.$.%.<.,.d.iXfXfXfXfXfX*X>.<.<.8.Y.x +.@.$.#.5.,.,.,.,.X.%.,.,.<.,.,.%.+.<.h.          ",
"    d.g.8 ,.,.<.<.<.F..X2.,.$.8 6 , 1 h :.;.#.@.$.G.fXaXfXfXfXpXiXx.,.$.p ! u d -.-.j n f ,.,.,.@.$.,.,.,.,.<.,.8 ,.w.          ",
"    D.3.X.<.,.<.2.f.*XjXL.:.9 9 3 * 1 -.;.:.:.:.d v.sXfXfXfXfXpXfX}.a d 1 V G a :.:.j u u d $.,.@.@.,.,.,.,.,.,.8 %.e.          ",
"    D.:.@.,.,.,.2.G.:X:XT.4.9 3 1 q f 2.:.:.-.d p ~ `.iXfXfXfXfX=X' u i d u ' Q >.-.d u G a #.$.@.X.,.,.,.,.,.<.+.$.1.8.        ",
"    h.#.+.,.,.<.<.:.v.-Xx 9 g , , v f -.d 3 g -.p ~ XX{.sXfXfX=X_ P P y d e B.! y i 3 u  ./ x #.+.X.,.,.,.,.,.<.@.@.1.8.        ",
"    h.8 +.,.,.,.,.,.x c.p h h < p / p h < 4 g -.b V.V.`.*XfXwX' I T } _ b a ( G G r d v @XoXn :.g g ,.,.,.,.,.<.@.@.<.2.        ",
"    g.g $.,.,.,.,.,.e b j #.#.9 a y , 3 4 4 h ;.6.%X/./.A.wX`.T P } ..+X) q V H L B e n oX&X/.v #.6 ,.,.,.,.,.,.%.8 ,.:.        ",
"    e.h ;.,.,.,.,.$.q p #.-.2.2.a m p 9 9 9 -.2.7.oXoXC.XX{.[ I E ..+X@XE F & U U Y ( n XXoXoXN.x 3 ,.,.,.,.,.,.%.7 @.;.        ",
"    e.  ;.,.,.,.,.g q 1 #.-.2.;., m w 3 3 9 -.-.v N.B.) /.N.W I  .OX[ E { I F J J ) B.` B.C.V.C.n p $.,.,.,.,.,.%.6 g $.        ",
"    8.  $.,.,.,.,.g q , 3 #.d < i z.x h h j j :.b B.V.) ] ~ _ ~ ] K L H U U B.0X=X=XZ.` XX/.(.C.J c +.,.,.,.,.,.%.6 8 $.        ",
"    8.  #.,.,.,.,.g q i 1 d 3 1 p Y.4.:.2.#.f -.c ) C._ Y Y /.) K M L U H U `.fXfXfXA.` C.) ( K V e +.,.,.,.,.,.&.8 8 @.        ",
"    8.  #.,.,.,.,.#.a f < < < , i T.6.3.2.f p a v ^ Y U U K (.K L M M H G [ $XfXfXsXA.` ' C B F u w @.,.,.,.,.,.,.8 @.+.        ",
"    8.    ,.,.,.,.#.v e < < < , w W.c.f.x.n A ^ ~ F H D U K _ G P M G P ( B.{.iXsX0XA.^ K G G B & w +.,.,.,.,.,.&.8 %.8         ",
"    8.    %.,.,.<.h y m j p a n Q N.m.Z.A.V.` _ W T R D I ' ( D I I W [ +X(.B.Z.A.A.' H L R R H & w @.,.,.,.,.,.%.X.,.8 d       ",
"    4.    +.,.,.<.+.m u n ~ [ OX/.Q ^ N.^ )  .{ { { { U E `.B.P _ @X+X+X%XC.^ ) ` Q H R E } { T V i ,.,.,.,.,.,.$.8 ,.%.+.      ",
"      i #.8 ,.%.8 2 r K [ @X+X%X%X) B.B.! Y R { { { R I _ 0X$X] C.%X%X%XoXB.) ` ( V P | } ..{ I B f <.,.,.,.,.,.$.d ,.,.%.      ",
"      < ,.X.6 8 7 5 4 / B.oX&X:X>X$XV.' F U R { { R U E `.fXsX`././.%X&XoXB.) ( H G U |  .#XE P y ;.,.,.,.,.,.,.:.4.,.,.,.h     ",
"    j @.,.@.X.,.$.7 5 p N.(.oX&X%X` V.Y G H R { R P T (.iXfXfX0X`././.%XoX) J I L M H } #X>X@X] 7.,.+.%.,.,.,.,.2.6.;.,.,.;.g   ",
"  j +.@.,.@.@.,.,.8 5 5 a N.V./.` ^ _ P G G R R U T V.iXfXfXfXfX=X`./.V.XXJ B U P M G  .&XkXjX=X4.,.8 ,.,.,.,.,.9.6.,.,.&.$.,.@.",
"-.;.g ,.,.@.+.,.,.$.7 5 6 c.A.V.) ! B M G M P I _ `.sXfXsXiXfXfXfX=X`.`.] B B G G M B U [ :XaXE.:.$.+.,.,.,.,.,.6.>.,.,.,.8 %.,.",
"<.@.@.$.@.7 X.<.,.,.X.5 5 c.wX{.`.B.Y Y Y Y _ (.=XfXfXfXsXiXfXfXfXfXiX$XV._ Y L P Y _ ] {.=XpXc.;.6 $.,.,.,.,.$.f ;.,.,.,.@.+.,.",
"<.+.@.6 X.5 6 +.8 g 6 - - 7.pXdXiX=X=X$X{.=XwXfXfXfXfXfXfXfXfXfXfXfXfXfXsX=X$X{.{.=X0XpXiX=X0X6.;.f ,.,.,.,.,.8 2 ,.,.,.,.%.6 %.",
"<.+.g 4 7 ; = , * * * * * v iXdXaXsXfXfXfXfXfXfXfXfXfXfXfXfXsXsXsXfXfXfXfXfXfXsXfXsXaXdXfXfXW.:.9.4.,.,.,.,.,.7 5 X.%.,.,.,.8 h ",
"<.+.i 3 5 ; - 1 i 6 d h 6 f qXfXsXiXdXsXfXfXfXfXfXfXsX=XZ.Z.Z.M.Z.[.=XfXaXaXsXpXaXiXfXfXfXaXc.>.x.:.,.,.,.,.%.2 5 X.@.,.,.,.$.  ",
";.+.  5 5 0 6 ,.,.,.,.,.,.#.}.fXsXsXdXfXfXfXfXfXfXfX0XS A _.).).)._.M.gXaXfXsXfXfXsXfXfXfX0X5.G.x.,.<.,.,.,.X.0 5 X.6 ,.,.<.@.  ",
"P.k   4 5 0 7 ,.,.,.,.,.<.;.P.fXaXfXfXfXfXfXfXfXfXfX0Xb._.).].].]._.[.fXfXfXfXfXfXfXfXfXfXT.c.}.>.#.+.+.6 6 0 5 5 X.3 ,.,.,.@.  ",
"sXv.    2 5 6 ,.,.,.,.,.%.#.7.iXfXfXfXfXfXfXfXfXfXfXdX[._.).).].].^.{.fXfXfXfXfXfXfXfXfXfXwXqXc.z r.s l i < 5 5 5 X.  ;.,.<.@.  ",
"pXT.    ; 5 2 +.8 6 1 < , , w n.dXfXfXfXfXfXfXfXfXfXfX=X^. X).].).^.hXfXfXfXfXfXfXfXfXfXfX0Xn.v.u.p.r.O.s 4.G.4.8 +.  ;.<.<.+.  ",
"pX}.      ; * , = * = = , , , v Y.wXfXdXfXfXfXfXfXfXfXaX{.^.).).^.|.fXaXfXfXfXfXfXfXfXdX*Xn.P.c.Z a.p.*.O.k 9XeX!.f.  #.<.<.  }.",
"sX*X      c.b , 1 3 d g @.%.%.5.v.n.}.iXfXaXaXfXfXfXfXfXsX=X=X|.=XdXfXfXfXfXdXdXpXdXwXY.n.U.I.U.Z y.s.t.s s R.yXyXrXQ.4.<.,.  *X",
"sX*X      8Xf.%.$.,.,.,.,.@.%.b c.U.n.U.=XdXfXdXpXfXfXfXfXfXfXfXfXfXfXfXfXaXpXdXsXT.c.n.I.I.I.I.c.y.s.i.*.s x.yXtXyXyX!.:.#.  *X",
"sX}.    }.eXx.$.2 ,.,.,.,.8 $.b P.I.I.P.n.Y.0XdXsXpXpXpXpXpXfXfXfXfXdXpXpXdXpX}.A > z.I.I.I.I.I.n.y.s.a.*.s 7.rXyXyXyXrXG.    W.",
"iX      qXrXx.@.4 ,.,.,.,.7 $.5.I.I.I.I.I.P.Z b.0XdXpXpXpXpXsXgXdXpXpXdXsX0Xm.: @ @ Z I.I.I.I.I.P.u.s.i.O.O.4.uXyXyXyXyXuX      ",
"0X    }.rXtXF.#.x ,.,.,.,.6 @.6.I.I.I.I.I.U.t @ t m.0XdXsXpXpXsXpXdXsX0X[.A > + + @ Z I.I.I.I.I.W.u.s.t.O.O.*.7X8XyXyXyXrXY.P.E.",
"{.    7XrXtXG.-.4.,.,.,.,.2 +.F.W.I.I.I.I.P.t + + # t m.0XsXsXsXsX0X[.M.S % + @ @ @ Z I.I.I.I.*X8Xu.p.=.O.O.z Q.Q.yXyXyXrXE.8XU.",
"t     uXrXtXL.>.6.,.,.,.,.2 #.L.8X~.I.I.I.P.t + @ @ + # A Z.{.{.Y.M.b.N @ + @ @ @ @ Z I.I.Y.9XrX8Xu.p.i.t.*.k ~.*XyXyXyXeXI.W.A ",
"# n Y.rXtXtXR.5.x.;.,.,.,.d #.R.tX7XY.I.I.P.r + @ @ @ + # N M.'.M.N % O + @ @ @ @ @ Z I.~.7XrXtX7Xu.s.s.s.i.z P.8XyXyXyXuXE.I.t ",
"$ z.E.eXtXtX!.6.G.;.,.;.:.f.G.9XtXrX7XY.I.P.r O @ @ @ @ + O t M.t O + + @ @ @ @ @ @ Z W.8XrXrXtX7Xu.p.y.r.r.z c.eXtXtXtX8XQ.P.t ",
"@ z.}.9XtXtX9Xx.L.5.S.R.E.E.8XtXtXtXrX7X~.P.r O @ @ @ @ + o X : X o + + @ @ @ @ @ @ t.rXrXrXtXrX7Xu.s.i.s s i G.tXtXrXtX9X*XW.t ",
"z 9X}.6XrXrXeXE.Q.W.rXrXrX8XW.W.eXtXrXrX8XI.r o @ + + O + X X X o X + + + @ @ @ $ $ z.tXrXrXrXrX}.u.s.p.=.s l E.tXtXtXtXQ.9XeXb.",
"9XrX6X}.tXeXeXyX8XQ.rXrXrXrXrX9X~.8XtXrXrX9Xt X @ + O O O X X X O X X + O + @ $ : $ m.rXrXrXrXQ.n.y.s.p.r.s s W.rXrXrXrXI.8XrX8X"
};
