/* XPM */
static char *_120e18d3f1d4e408c036fe96f9e40386Hkl7qccOLLotonr[] = {
/* columns rows colors chars-per-pixel */
"64 64 218 2 ",
"   c #480E0D",
".  c #4B130F",
"X  c #430F11",
"o  c #461215",
"O  c #4C1415",
"+  c #4E1916",
"@  c #4C1519",
"#  c #4D1919",
"$  c #511515",
"%  c #5A1615",
"&  c #541917",
"*  c #5E1A16",
"=  c #511619",
"-  c #5A1619",
";  c #55191A",
":  c #5C1B1A",
">  c #621B16",
",  c #691C16",
"<  c #61171A",
"1  c #631C1B",
"2  c #6A1E1C",
"3  c #701B13",
"4  c #711F1C",
"5  c #582218",
"6  c #5C221E",
"7  c #64221C",
"8  c #682319",
"9  c #6D211D",
"0  c #73211D",
"q  c #79241D",
"w  c #79271C",
"e  c #5F1A20",
"r  c #671F20",
"t  c #6D1F21",
"y  c #5E2522",
"u  c #5F2823",
"i  c #632521",
"p  c #6D2221",
"a  c #612821",
"s  c #692B27",
"d  c #732421",
"f  c #7B2623",
"g  c #752B25",
"h  c #7D2A24",
"j  c #752F28",
"k  c #7B2C29",
"l  c #6B312C",
"z  c #75332C",
"x  c #7C302C",
"c  c #753631",
"v  c #793731",
"b  c #763831",
"n  c #793933",
"m  c #7B3E39",
"M  c #83261C",
"N  c #86291F",
"B  c #8B2A1F",
"V  c #992E1F",
"C  c #832622",
"Z  c #852B23",
"A  c #8B2C24",
"S  c #852C28",
"D  c #8B2F28",
"F  c #922D24",
"G  c #9A2E24",
"H  c #922E28",
"J  c #9C2F29",
"K  c #843125",
"L  c #8D3127",
"P  c #84322B",
"I  c #8B322A",
"U  c #8B382E",
"Y  c #953126",
"T  c #9B3126",
"R  c #94332A",
"E  c #9B3329",
"W  c #9C3B2F",
"Q  c #8A3C34",
"!  c #843E3A",
"~  c #973C33",
"^  c #A12D26",
"/  c #A33326",
"(  c #A93426",
")  c #A3352A",
"_  c #AA362A",
"`  c #A43B2D",
"'  c #AB3A2B",
"]  c #B4362D",
"[  c #B33B2C",
"{  c #BD3E2D",
"}  c #A63530",
"|  c #A43D33",
" . c #AB3D31",
".. c #B43E31",
"X. c #BC3F31",
"o. c #C23E2D",
"O. c #C23F30",
"+. c #8A443A",
"@. c #8E4B3D",
"#. c #934234",
"$. c #984238",
"%. c #924C3E",
"&. c #AF412E",
"*. c #B7432E",
"=. c #BD412E",
"-. c #A24134",
";. c #A2453B",
":. c #AA4638",
">. c #B54132",
",. c #BE4231",
"<. c #BC4637",
"1. c #BD4A36",
"2. c #B3443A",
"3. c #B34C3D",
"4. c #BD4B3A",
"5. c #BB513D",
"6. c #C1412E",
"7. c #C14231",
"8. c #C24936",
"9. c #C24339",
"0. c #C94438",
"q. c #C24B3A",
"w. c #C2513E",
"e. c #CA543E",
"r. c #894843",
"t. c #8E4D43",
"y. c #924C43",
"u. c #934945",
"i. c #9B5146",
"p. c #945348",
"a. c #9C564E",
"s. c #9E5A4E",
"d. c #9E5B53",
"f. c #A84C42",
"g. c #B34E41",
"h. c #A65547",
"j. c #A4534A",
"k. c #AE5A4D",
"l. c #B65345",
"z. c #BB5343",
"x. c #B4564A",
"c. c #BC5B4C",
"v. c #A45E55",
"b. c #AF5D54",
"n. c #BC5F53",
"m. c #B5634F",
"M. c #A56154",
"N. c #A86357",
"B. c #AC625A",
"V. c #B66658",
"C. c #BA6A5B",
"Z. c #BB6C62",
"A. c #BC7263",
"S. c #BB756A",
"D. c #C24F42",
"F. c #C45442",
"G. c #C75646",
"H. c #C55A46",
"J. c #C95A47",
"K. c #C45B49",
"L. c #CB5C4A",
"P. c #CB624E",
"I. c #D1664F",
"U. c #C26253",
"Y. c #CC6553",
"T. c #CD6B55",
"R. c #C26759",
"E. c #C16A5C",
"W. c #CD6C59",
"Q. c #D16653",
"!. c #D16955",
"~. c #D0675B",
"^. c #D26D5B",
"/. c #D3715C",
"(. c #C96E62",
"). c #C47465",
"_. c #CD7365",
"`. c #C47568",
"'. c #CA746A",
"]. c #C67D6D",
"[. c #CB7C6C",
"{. c #D47564",
"}. c #D97664",
"|. c #D37964",
" X c #D57965",
".X c #D97965",
"XX c #D67668",
"oX c #D27B6B",
"OX c #DB7D6C",
"+X c #C77D70",
"@X c #C87D70",
"#X c #D07F70",
"$X c #DE7E71",
"%X c #CB816E",
"&X c #DB8066",
"*X c #D6816D",
"=X c #DB826D",
"-X c #CA8374",
";X c #D68571",
":X c #DB8573",
">X c #D78D75",
",X c #DC8B76",
"<X c #D58979",
"1X c #DD8D79",
"2X c #DF8F7B",
"3X c #D79077",
"4X c #DE917D",
"5X c #E18A6F",
"6X c #E18674",
"7X c #E08A76",
"8X c #E28E7B",
"9X c #E29077",
"0X c #E2917C",
"qX c #E2917D",
"wX c #DC8B81",
"eX c #DF9283",
"rX c #E58F82",
"tX c #E29182",
/* pixels */
"@ # # # = = = = = = = = = # # = = = = = = = = = = = = = = = = = = = = = = = = = = = = = = = O O O # $ $ $ $ $ $ $ $ # # # # O = ",
"# O o o o o o o o o o o O # # # O O O O O O O O O O O O O O O O O O O O O O O O O O O O O $ $ O O O O O O O O O O O O O O O O $ ",
"d R R v.M.M.M.M.M.N.N.N.N.n O : a.B.B.B.B.B.B.j.L R j.B.B.B.B.B.B.B.B.B.B.B.B.B.B.B.B.v.v O - I R f.B.b.B.B.B.B.B.B.B.B.B.B.+.O ",
"S 0.q.6XqXqXqXqXqXqXqXqX8Xp.O i #X8X8X8XqXqXqX}.,.<..X4X4XqXqXqXqXqXqX8X8X8XqXqXqXqX1X1Xt.O > ..O.^.qX1X1X1X1X1X1X1X1X8X8X8Xv.O ",
"S 0.8./. X X X}.}.}.}.}. Xr.O i [.4X;X X X X XY.*.,.Y.|.XX_._._.|./.|.oXoXoX|.|.|.oX>X>X@.$ 1 l.G.T. X|.|.|.|.|.|.|.|.|.|..Xi.o ",
"S 0.6.8.8.8.8.8.0.8.8.8.8.x O i [.4X/.8.8.8.8.7.{ 6.7.7.>.| | 2.1.8.8.8.8.8.8.8.1.G.:X,X@.$ p '.,XY.8.8.7.7.8.8.8.8.8.8.1.4.I O ",
"S 7.6.6.6.6.6.7.{ 7.7.6.O.k O i oX8X!.7.o.6.6.6.6.7.6.o.[ / E ' *.o.=.=.=.{ =.6.{ F.:X,X+.# p [.8XP.o.o.6.6.6.6.6.6.6.=.*.*.K O ",
"S 7.6.6.6.=.,.,.E L E ,.7.h $ : K.Q.G.7.=.=.=.q.^.W.q.o.{ [ ' _ ( / G F ) { =.=.=.8.P.Y.U # > h.c.4.6.=.=.=.=.=.,.) Y Y L L p O ",
"S 7.6.6.7.,.,.,.C 8 Z >.=.C $ & ] ,.=.=.=.=.=.J.1X,XG.o.6.6.,.( V A 0 2 D { { =.=.=.{ { C @ % N G _ ,.=.,.,.,.,.,.A 9 9 9 9 : O ",
"S 7.6.6.6.=.,.,.R P R >.,.C $ % ] X.{ { { { { F.=X*Xw.o.o.o.=.&.-.#.w 0 R o.{ =.=.=.=.{ C @ % A T ` ,.*.,.,.,.,.,.F f h f f i O ",
"S 7.6.6.6.[ E | (.<X_.<.7.h O & G / [ { { / J ' 1.1.7.6.7.7.7.T.:XoX| G _ o.6.( J ( o.{ C # $ 9 0 N / ( ,.<.,.,.,.,.>.>...>.P o ",
"S 7.6.6.,.' T ` XXtX X1.=.h O = F E ' 7.X.) E ' ,.,.=.*.,.,.8.W.qX;X-.T _ 7.,.' G ) 7.=.h # $ 8 9 N E / >.<.>.,.<.<.<.,.,.,.L o ",
"w T T T T F A A f.k.f.T T p # = C C A T T A C F E Y c.^.K.) G ;.k.h.S C F G T A C A E T 9 # $ 8 9 w A Y U.^.K.G E T T T Y E d O ",
": 0 0 0 d 0 0 0 4 4 0 0 9 : @ = 9 9 9 9 0 d 9 d d 9 A.4X).h 4 0 0 0 4 0 0 9 9 8 8 9 0 0 : O $ 8 0 9 0 K [.tXZ.2 d 0 d 0 9 p : o ",
"e t 9 2 2 2 2 2 2 2 2 9 8 : @ # 7 8 8 8 8 8 8 8 8 9 V.<XC.g 8 p t t t t t p i i i i p 7 : # $ 7 9 9 2 h `.<XB.> 8 8 8 8 t t : O ",
"= ; ; = = = & = = = & & & ; @ @ = ; ; ; ; ; ; ; ; ; l b l : - - - - - = ; ; ; ; ; ; ; ; # # # ; ; ; ; : l c s O & ; ; ; ; ; # # ",
"O o O O o o o o o o o O O O O O o o @ @ @ @ @ @ @ o o o o # $ O O O o o O O O O O O O O O O o o o o o o o X o o O O O O O O O O ",
"i v v b b b b b v v z 0 0 j v v v v v v v v v v v v d 4 2 = # i v v v v v v v b b z 0 0 g v z v v v v v v v v v v v v v v v a O ",
"p.8X,X,X,X,X,X,X,X1X{.<.7./.,X,X,X,X,X,X,X,X,X,X,X,XF.=./ - & s.8X7X,X,X,X,X,X>X3X X7.,.^.1X1X1X1X,X,X,X,X,X,X,X,X1X1X1X,X>Xd.o ",
"p.8X,X,X,X,X,X,X,X8X{.<.7./.,X,X,X,X,X7X7X7X7X7X7X,XG.,.` % # j.8X5X,X>X>X,X,X,X>X X7.,.^.1X1X1X1XqX1X,X,X7X,X8X8X8X8X1X1X1Xd.o ",
"U L.G.H.H.H.H.H.H.J.F.,.,.w.H.H.G.G.G.J.J.J.J.J.J.J./..Xm.5 # ~ L.F.3.g.l.K.H.5.3.3.,.7.F.L.G.G.G. X8X:XQ.J.!.7X1X1X1X1X1X1Xd.@ ",
"A 8.,.7.7.7.6.6.6.7.7.7.7.,.7.7.7.7.7.7.7.7.7.7.6.7..X8XA.5 # A 7.{ / E ' ,.{ / J / { o.7.7.7.=.=.^.8X=Xe.o.J.,X1X1X1X1X1X1Xd.@ ",
"A 7.,. . .>.=.6.6.7.7.7.,.X.....' ' ..,.7.,.,.,.7.<.Q.XXb.; # A 7.{ _ / ] =.X._ / ( { =.7.7.X.[ ] c.'.E.q.=.e..X.X;X1X1X1X1Xd.@ ",
"A 7.>.M 0 E ,.7.6.7.7.7.,._ E R f 0 E ,.7.,.,.,.,.,. .| I $ # A 7.6.{ { ,.7.7.,.=.=.7.6.6.=.{ ( / A h Z ' 7.6.8.8.}.4X1X1X1Xd.o ",
"A 7.>.0 2 E ,.,.=.6.7.7.,._ T R d 2 Y ,.7.,.,.,.,.,.) E Z & # A ,.6.{ =.7.7.7.7.7.6.6.6.6.o.{ / E M 2 w ' 7.o.o.7.}.8X1X1X1Xd.o ",
"S 7.1.x.k.3._ _ *.6.6.6.7.{ [ ' / / ' 6.6.6.=.[ ' ' A C 0 & # 9 I Y *.=.*._ ' _ _ ' =.6.=.=.=.[ [ E A A ) _ [ O.7.1.z.l.l.x.! O ",
"S <.F.7X8XY.T E [ 6.6.6.6.7.6.6.6.6.6.6.6.=.,.] ^ J f 9 1 $ # : 8 0 >.6.[ T T T E / { 7.7.7.7.=.,.' T Y E T ) 7.7.( G J J Y g # ",
"f ' :._.'.x.F Y _ [ [ [ [ [ [ [ [ [ [ ' [ 4.F.2.F A w 9 1 $ # > 9 0 _ ' ) H H H H E ' [ [ [ ] ] ' ) F A F F T ] ' T F F F H d # ",
"1 w 0 f h d 0 0 0 w w w w w w w w w 0 0 P (.:XV.3 0 0 9 1 $ # > 9 9 w w w 0 d 0 0 0 w w 0 0 0 w w 0 0 0 0 0 0 w 0 0 0 0 0 0 1 # ",
"1 0 0 4 2 9 9 9 9 9 9 9 9 9 8 8 8 9 p 2 P `.wXZ., 0 0 0 1 $ # > p d 4 4 0 0 0 0 0 0 0 0 9 9 9 0 0 9 9 0 9 0 0 0 9 0 0 0 0 0 : # ",
"- > > > > : : * * * * * * * : > > : * * 8 r.p.! % > > > : $ $ - : : : : < > : : : : : > > 1 1 1 1 1 > > > > > > > > > > 1 : ; # ",
"# = = = # # # # # # # # O . O $ $ $ $ $ O .   O # $ $ $ $ $ # $ # # # # # + # # # # # # # # # # # # # # # # # # # # # # # # # # ",
"& > > i i i i i i i i i 7 ; O $ 7 7 7 7 7 i a 7 > > 7 i i i i i i a a 7 a a a a a a a 6 ; + $ * > 7 a a a a a a a a a y y y ; # ",
"h  .:.`.].+X+X@X@X@X@X@X].r.o 6 A.%X%X[.[.%X%XC.`  .E.].].[.[.[.[.[.[.].[.[.+X+X].].].].+.O > ) ..n.[.].].].].].].+X+X+X%X-Xp.O ",
"Z 7.q.:X4X4X4X4X4X4X4X4X1Xt.O 6 %XqXqX9XqX4X4X|.=.,. X1X1X1X1X1X1X1X,X,X1X1X1X1X1X1X,X>X@.O > ] o.^.qX4X4X4X4X4X4X4X4X4X4X4Xd.o ",
"Z 7.8.Y.W.W.W.W.W.W.W.W.T.! O 6 [.8X XT.T.T.W.J.=.=.L.T.T.U.V.R.W.T.T.T.T.T.T.T.T.{.,X>X@.O 7 c.Q.!.W.W.W.W.W.W.W.W.W.W.W.W.%.o ",
"Z 7.=.,.,.,.,.7.7.,.,.,.,.k o 6 [.8XW.,.o.{ { { { { O.,.[ / E  .,.=.=.=.=.=.=.6.o.G.,X>X@.# p [.8XY.,.,.7.7.7.,.,.7.7.7.7.7.D o ",
"Z 7.=.=.=.=.6.6.=.,.,.=.=.k O y _.7XY.,.=.=.=.,.8.8.7.O.[ E / ' =.=.[ =.=.{ { { o.w.*X;X+.# i '.:XL.=.=.,.=.=.7.=.*.,.,.,.,.L O ",
"Z 7.=.=.=.=.6.o.T S E *.*.k o : z.L.q.,.7.=.6.F.OXoXw.o.{ [ [ ' / ) A N ) { { { o.7.G.F.P = 1 ;.g.2.=.=.,.,.7.7.,.T S S S S p # ",
"Z 7.=.=.=.=.6.7.C 1 C ,.,.k O - [ { =.=.,.6.6.J.4X3XH.o.o.6.6.' T Y d 9 A { { { o.o.o.{ C # < H J ] o.6.,.,.7.7.<.C 8 p p p : # ",
"Z 7.=.=.=.{ [ >.~ Q $.,.,.k O - _ [ *.=.=.*.[ F..X.XF.o.o.o.o.2.:.;.C w G { { [ [ { 6.{ h # : C F ) [ [ =.,.,.7.,.G A C N C 8 # ",
"Z 7.=.=.,.[ T ` '.wXXX7.O.h O % F E ' 6.X.) E _ <.=.7.7.7.O.7.T.8XOXW T ) 6.7._ E ( o.{ h # & 9 0 A E ) *.=.=.7.7.,.,.,.,.<.P O ",
"Z ,.,.,.,.] ) | '.8X}.7.o.h $ = A E ' 7.X.} E } ,.7.,.X.,.7.7.!.8X:X-.E ` ,.7._ T ) ,.,.h # & 7 9 C Y E >.*.=.7.7.,.,.,.,.<.I O ",
"9 S S S S C h h #.%.#.L A p = = d f C A A S h C L K m.XXU.Y S Q u.u.k h h S S C f C S A 8 # & 7 9 0 w I R._.n.S S S S S S L p O ",
": 9 0 0 0 0 0 9 9 9 9 0 0 : # = 9 d d 9 9 p 9 9 0 8 A.tX).w 8 9 9 9 p p 9 9 0 0 9 9 0 9 - # & 8 9 0 9 P [.wXC., 9 0 0 0 0 0 : O ",
"- 1 2 2 2 1 1 7 7 7 1 1 7 ; # = 1 2 1 1 1 1 1 1 1 > v.S.v.p 1 7 7 7 1 r 1 2 2 2 2 2 2 1 ; @ $ 1 1 1 1 g B.S.s.> 1 1 1 1 1 1 : # ",
"= = & & $ $ $ # # # $ # # @ @ # = = = = = = = = = = y a y ; $ $ $ = = = = = = = = = = = @ O O # # # # $ y u 6 O ; = = ; ; ; # # ",
"$ $ $ O O O O O . . O O O O o # # # # # O O # # # $ $ $ $ # # $ $ O # # # # $ # # $ $ $ O o o O O O O O . . O O # # # # # # O # ",
"s y.y.y.y.t.y.%.%.@.#.Z B #.%.%.%.@.@.@.@.@.%.y.y.%.L A f & + z y.y.y.t.y.y.y.y.y.#.C N Q @.@.t.t.t.t.y.t.t.y.y.y.y.y.y.y.y.c # ",
"i.tXqXqX4X4X4XqXqX4X|.1.0.}.8X8XrX8XqXqXqX8X8X8X4XqXJ.7.) - & s.tXrXtXeXeXtXtXtXtXOXq.<./.8X9XqXtXtXeXtXeXeXtXtX8X8X8X8X8XtXd.O ",
"%.=X=X=X=X=X=X=X:X=X^.<.9.^.$X$X$X$X=X=X=X=X=XOX=X=XL.q.| < ; i.,X:X*X*X*X*X=X*X*X^.7.=.I.&X&X=X=X,X1X1X:X=X:X1X,X,X8X8X8X8Xa.o ",
"K 5.4.4.q.q.q.q.q.q.8.7.,.<.8.8.8.8.1.1.4.1.1.1.4.D.XX,XC.: $ L 4.1.| W :.1.1.' ` ' o.o.7.1.1.1.4.W.8X,XH.1.P.7X,X,X8X8X8X8Xd.o ",
"Z 7.,.,.,.,.,.,.,.,.,.7.,.=.6.6.7.,.,.,.,.,.,.,.,.<..X8XA.: O F 7.{ / T ) { *.) T ) { { 6.7.7.O.7.~.1X:XF.{ L.7X1X1X1X1X8X8Xd.o ",
"Z 7...T Y ' ,.,.,.,.,.,.,.[ _ ' E Y ' ,.,.,.,.,.,.,.J.U.f.- O F 7.=.' _ ' { { [ _ ' { =.6.6.{ [ ' g.b.k.1.=.8.Q.T.=X1X8X8X8Xd.o ",
"Z 7...w p E ,.,.,.,.,.,.,._ T Y d 4 F ,.,.,.,.,.7.,.( E N $ # A 7.6.=.=.=.=.=.=.=.{ o.o.o.{ { / E A 4 w _ =.=.6.<.}.8X1X8X8Xd.o ",
"S 7.>.S x W =.{ ,.,.,.7.,.' E T h w T ,.6.=.7.7.{ { / G M $ # A ,.{ =.{ { { { { { { o.o.o.{ { / E A 0 w _ { { 7.<./.;X;X;X;Xa.O ",
"S ,.4.`.].c./ / [ =.,.,.7.=.{ [ ' _ [ 6.6.=.,.[ / ) C d 9 $ # 2 w N { 6.[ / / / E ( { { =.o.6.{ [ ) F H E / ( O.7.&.-.| | | k O ",
"S ,.w.,XeXR.T E ..,.,.,.7.6.6.6.6.6.6.6.=.=.=.] ^ E f p 1 $ # : 8 w ,.6.[ E E Y Y ) { =.=.7.6.6.6.[ T E E E ) ,.,./ G G G G d # ",
"w ( ' m.V.;.A A E ) ) ) ) ) ) ) ) ) ) ) ` H.P.g.A D d p 1 $ # > 9 0 T ) T A S A C A E E ) ) ) ) ) Y A A A A F ) ) G A A A A d # ",
"> 0 0 0 9 9 0 0 0 0 0 0 0 0 0 0 0 0 0 4 h ).8XC., 0 9 9 1 $ # > 0 0 0 0 0 4 0 0 0 0 0 0 0 0 0 0 0 0 4 0 0 0 0 0 0 0 0 0 0 0 1 # ",
"> p p 9 9 9 9 9 0 0 9 9 9 9 9 9 9 9 9 8 g ).,XV.1 9 9 p 1 $ # : 9 9 9 9 9 p p p p p p p p p p p p 9 9 9 p p p p p p 9 9 p p : # ",
"& - - - - - : : - - - - - : - : - - - - : m r.v ; ; ; ; = # # = & & ; ; ; ; ; ; ; ; ; ; = = ; ; ; ; ; ; = = ; ; ; ; ; ; = ; = # ",
"$ $ $ $ $ $ $ $ $ $ $ $ $ # # # # # # # O O O O O # # # @ @ # @ # # # # # @ # # # # # # @ @ @ # # # @ # @ @ # # # # # # @ @ @ # ",
"O @ O O @ @ @ @ @ @ @ @ @ @ @ @ @ @ @ @ @ @ @ @ # # @ @ @ @ @ @ @ @ @ @ @ @ @ @ @ @ @ @ @ @ @ @ @ @ @ @ @ @ @ @ @ @ @ @ @ @ @ @ "
};
